<svg xmlns="http://www.w3.org/2000/svg" viewBox="0 0 19.81 19.81"><defs><style>.cls-1{fill:#867bb9;}</style></defs><g id="Layer_2" data-name="Layer 2"><g id="Camada_1" data-name="Camada 1"><path class="cls-1" d="M14.17,19.81H5.64A5.65,5.65,0,0,1,0,14.17V5.64A5.65,5.65,0,0,1,5.64,0h8.53a5.65,5.65,0,0,1,5.64,5.64v8.53A5.65,5.65,0,0,1,14.17,19.81ZM5.64,1.7A4,4,0,0,0,1.7,5.64v8.53a3.94,3.94,0,0,0,3.94,3.94h8.53a3.93,3.93,0,0,0,3.94-3.94V5.64A3.94,3.94,0,0,0,14.17,1.7Z"/><path class="cls-1" d="M9.91,15A5.08,5.08,0,1,1,15,9.91,5.09,5.09,0,0,1,9.91,15Zm0-8.45a3.38,3.38,0,1,0,3.37,3.38A3.39,3.39,0,0,0,9.91,6.53Z"/><path class="cls-1" d="M16.42,4.54A1.22,1.22,0,1,1,15.2,3.32,1.22,1.22,0,0,1,16.42,4.54Z"/></g></g></svg>