<svg xmlns="http://www.w3.org/2000/svg" viewBox="0 0 122.23 122.23"><defs><style>.cls-1{fill:#fff;}.cls-2{font-size:8.45px;}.cls-2,.cls-3,.cls-4{fill:#222221;}.cls-2,.cls-3{font-family:Lato-Thin, Lato;font-weight:200;}.cls-3{font-size:8.51px;}.cls-5{fill:#807ab4;}.cls-6{fill:#2e2a21;}.cls-7{fill:#ead789;}.cls-8{fill:#d7b355;}.cls-9{fill:#5d3f1f;}.cls-10{fill:#97ae3a;}.cls-11{fill:#3c3a38;}.cls-12{fill:#bd8229;}.cls-13{fill:#ac231e;}.cls-14{fill:#e4b23a;}.cls-15{fill:#a17f51;}.cls-16,.cls-17{fill:#3d3b38;}.cls-16,.cls-19{opacity:0.44;}.cls-16{isolation:isolate;}.cls-18{fill:#555251;}.cls-20{fill:#d16f48;}.cls-21{fill:#f1d6b5;}.cls-22{fill:#3e3e3d;}.cls-23{fill:#e8d360;}.cls-24{fill:#333080;}.cls-25{fill:#7cb485;}.cls-26{fill:#f6f4e4;}.cls-27{fill:#8ebfba;}.cls-28{fill:#6ea39e;}.cls-29{fill:#c0cedb;}.cls-30{fill:#f9f9fa;}.cls-31{fill:#2e2b29;}.cls-32{fill:#ebebeb;}.cls-33{fill:#f4f4f4;}.cls-34{fill:#f4f4f5;}</style></defs><g id="Layer_2" data-name="Layer 2"><g id="Camada_1" data-name="Camada 1"><circle class="cls-1" cx="61.11" cy="61.11" r="61.11"/><circle class="cls-1" cx="61.11" cy="61.11" r="46.54"/><text class="cls-2" transform="matrix(0.77, -0.64, 0.64, 0.77, 26.66, 23.64)">REPÚBLICA</text><text class="cls-3" transform="translate(7.5 80.74) rotate(66.46)">QUATRO COISAS</text><path class="cls-4" d="M29.6,29.81l6.25,6.25,15,15L69,69.23,84.71,84.92l5.14,5.13,1.62,1.63a5.56,5.56,0,0,0,.84.84s.07.07.11.11.34-.08.21-.21l-6.26-6.25-15-15L53.2,53,37.51,37.31l-5.13-5.14-1.62-1.62a6.06,6.06,0,0,0-.84-.84s-.08-.08-.11-.11-.34.07-.21.21Z"/><path class="cls-4" d="M92.42,29.6l-6.25,6.25-15,15L53,69,37.31,84.71l-5.14,5.14-1.62,1.62a5.56,5.56,0,0,0-.84.84.38.38,0,0,1-.11.11c-.13.13.08.34.21.21l6.25-6.26,15-15L69.23,53.2,84.92,37.51l5.13-5.13,1.63-1.62a6.06,6.06,0,0,0,.84-.84.38.38,0,0,1,.11-.11c.13-.13-.08-.34-.21-.21Z"/><path class="cls-5" d="M32.27,74.67A1.33,1.33,0,1,0,33.59,76,1.33,1.33,0,0,0,32.27,74.67Z"/><path class="cls-6" d="M32.27,74.67A1.33,1.33,0,1,1,30.94,76a1.33,1.33,0,0,1,1.33-1.33m0-.38A1.71,1.71,0,1,0,34,76a1.71,1.71,0,0,0-1.71-1.71Z"/><path class="cls-5" d="M46.14,59.36c0-2.32-1.92-4.29-4.58-5a4.26,4.26,0,0,0,.22-1.33c0-2.88-3-5.22-6.6-5.22a8,8,0,0,0-3.14.62A7.49,7.49,0,0,0,28,47.32c-3.52,0-6.38,2.26-6.38,5a4.74,4.74,0,0,0,2.3,3.89,5.06,5.06,0,0,0-3,4.36c0,2.89,2.95,5.22,6.6,5.22A8.13,8.13,0,0,0,29,65.72a6.61,6.61,0,0,0,5,2.15,6.31,6.31,0,0,0,5.78-3.29C43.3,64.49,46.14,62.19,46.14,59.36Z"/><path class="cls-6" d="M28,47.32A7.49,7.49,0,0,1,32,48.46a8,8,0,0,1,3.14-.62c3.65,0,6.6,2.34,6.6,5.22a4.26,4.26,0,0,1-.22,1.33c2.66.68,4.58,2.65,4.58,5,0,2.83-2.84,5.13-6.38,5.22A6.31,6.31,0,0,1,34,67.87a6.61,6.61,0,0,1-5-2.15,8.13,8.13,0,0,1-1.41.12c-3.65,0-6.6-2.33-6.6-5.22a5.06,5.06,0,0,1,3-4.36,4.74,4.74,0,0,1-2.3-3.89c0-2.79,2.86-5,6.38-5m0-.53a7.8,7.8,0,0,0-4.84,1.6,5.48,5.48,0,0,0-1.5,1.77,4.58,4.58,0,0,0-.57,2.21A5.05,5.05,0,0,0,23,56.21a5.36,5.36,0,0,0-2.55,4.41A4.86,4.86,0,0,0,21,62.9a6,6,0,0,0,1.55,1.83,8.07,8.07,0,0,0,5,1.64,9.83,9.83,0,0,0,1.21-.08,6.81,6.81,0,0,0,2.15,1.48A7.6,7.6,0,0,0,34,68.4a7.43,7.43,0,0,0,3.79-1,6.06,6.06,0,0,0,2.32-2.31,7.91,7.91,0,0,0,4.52-1.69,5.21,5.21,0,0,0,2-4,5,5,0,0,0-1.43-3.46,7.2,7.2,0,0,0-3-1.87,5.23,5.23,0,0,0,.1-1,4.86,4.86,0,0,0-.58-2.28A5.86,5.86,0,0,0,40.17,49a8,8,0,0,0-5-1.64,8.65,8.65,0,0,0-3.09.57A8.1,8.1,0,0,0,28,46.79Z"/><path class="cls-5" d="M37.31,70.15A1.71,1.71,0,1,0,39,71.85,1.7,1.7,0,0,0,37.31,70.15Z"/><path class="cls-6" d="M37.31,70.15a1.71,1.71,0,1,1-1.71,1.7,1.71,1.71,0,0,1,1.71-1.7m0-.43a2.14,2.14,0,1,0,2.14,2.13,2.14,2.14,0,0,0-2.14-2.13Z"/><path class="cls-7" d="M27.62,49.35l1.2,2a.17.17,0,0,0,.18.09l2.15-.28s0,0,0,0l-1.24,1.51.64,2.38s0,0,0,0L28.47,54a.17.17,0,0,0-.2,0l-1.91,1.7h0l.37-2.06a.24.24,0,0,0-.1-.25l-1.84-1.31s0-.05,0-.05l2.26-.34a.27.27,0,0,0,.23-.23l.3-2.15A0,0,0,0,1,27.62,49.35Z"/><path class="cls-6" d="M38.86,53.35a.34.34,0,0,1-.33-.28,3,3,0,0,0-3.13-2.26h-.26a.34.34,0,0,1-.35-.31.35.35,0,0,1,.31-.37h.34c.53,0,3.23.14,3.75,2.81a.34.34,0,0,1-.27.4Z"/><path class="cls-8" d="M46.09,38.1c-.53-1.34-.68-2.51.2-2.9,1.15-.52,13.52-.28,15.15-.28s14.09-.21,14.72.28.42,1,0,2.22-1.39,3.1-3.27,3.1c-4.76,0-9.51,0-14.27,0-3,0-5.94,0-8.91,0A3.59,3.59,0,0,1,46.09,38.1Z"/><path class="cls-9" d="M54.16,34.86c3.28,0,6.5.06,7.28.06s3.84-.05,7-.05c3.65,0,7.38.06,7.72.33.64.49.42,1,0,2.22s-1.39,3.1-3.27,3.1H53.15l-3.49,0H49.6a3.59,3.59,0,0,1-3.51-2.44c-.53-1.34-.68-2.51.2-2.9.6-.27,4.27-.34,7.87-.34m0-.58c-7.25,0-7.83.25-8.1.38-.77.34-1.48,1.25-.52,3.66l0,0a4.16,4.16,0,0,0,4,2.78h.07l3.48,0H72.84c2.48,0,3.49-2.62,3.82-3.48l0-.11c.46-1.19.79-2.05-.18-2.79-.25-.2-.58-.45-8.08-.45-2.12,0-4.21,0-5.59,0H60c-1.44,0-3.61,0-5.82,0Z"/><path class="cls-10" d="M52.44,34.84c-3.25-.71-5.72-.93-6.43-.67a3.46,3.46,0,0,0-.64.33c-.11.07-1,.63-.87,1s.28.26.31.49-.24.38-.19.59.44.11.82.52l.07.09,0,0c.94.8,3.68,0,3.68,0,2-.6,2.14-1,3-.9s1.12,1,2,.9.87-.52,1.59-.83c1.94-.85,3.75,1.69,5.68.88.82-.35,1-1,1.76-1s.78.7,1.57,1.05c1.46.63,2.52-1.06,4.37-.59,1.08.27,1.29,1,2.06.81.92-.19,1.16-1.25,1.83-1.2s.62.88,1.26,1,.72-.54,1.52-.67,1.24.5,1.69.26a1.72,1.72,0,0,0,.1-2.35c-.3-.17-.66.06-1.17.25-1.2.46-2-.23-3.63.09a13.78,13.78,0,0,1-4.4.16s-7.11-.35-8.14-.35C60.22,34.68,53.92,34.84,52.44,34.84Z"/><path class="cls-11" d="M47,34.07a28.65,28.65,0,0,1,5.48.77c1.48,0,7.78-.16,7.78-.16,1,0,8.14.35,8.14.35a16,16,0,0,0,1.76.1,13,13,0,0,0,2.64-.26,4.71,4.71,0,0,1,.88-.08c.71,0,1.27.16,1.85.16a2.51,2.51,0,0,0,.9-.17,3.5,3.5,0,0,1,.94-.31.46.46,0,0,1,.23.06,1.72,1.72,0,0,1-.1,2.35.42.42,0,0,1-.21.06c-.33,0-.67-.34-1.24-.34l-.24,0c-.76.12-.94.68-1.43.68h-.09c-.64-.08-.69-.92-1.26-1h0c-.63,0-.89,1-1.78,1.21l-.22,0c-.6,0-.87-.6-1.84-.84a2.6,2.6,0,0,0-.65-.09c-1.2,0-2.07.82-3,.82a1.73,1.73,0,0,1-.68-.14c-.79-.35-.84-1-1.57-1.05h-.08c-.69,0-.89.65-1.68,1a2,2,0,0,1-.81.16c-1.35,0-2.66-1.22-4-1.22a2.12,2.12,0,0,0-.84.18c-.72.31-.87.76-1.59.83H54c-.74,0-.91-.76-1.84-.91l-.27,0c-.61,0-.92.39-2.69.92a9.54,9.54,0,0,1-2.35.38,2.08,2.08,0,0,1-1.33-.35l0,0-.07-.09c-.38-.41-.78-.34-.82-.52s.23-.34.19-.59-.24-.25-.31-.49.76-.94.87-1a3.46,3.46,0,0,1,.64-.33,3.08,3.08,0,0,1,1-.1m0-.4h0a3.61,3.61,0,0,0-1.09.13,4.25,4.25,0,0,0-.61.31h0l-.1.06c-.81.53-1.15,1-1,1.45a.9.9,0,0,0,.26.41l0,0,0,0a.78.78,0,0,0-.15.57.67.67,0,0,0,.48.44,1,1,0,0,1,.44.26l0,0,0,.05.06.06a2.45,2.45,0,0,0,1.59.44,10.3,10.3,0,0,0,2.46-.39,14.66,14.66,0,0,0,1.8-.67,1.92,1.92,0,0,1,.78-.24l.21,0a1.62,1.62,0,0,1,.8.42,1.64,1.64,0,0,0,1.1.49h.15a1.91,1.91,0,0,0,1.11-.49,3,3,0,0,1,.59-.37,1.67,1.67,0,0,1,.69-.14,4.84,4.84,0,0,1,1.86.57,5.3,5.3,0,0,0,2.17.65,2.43,2.43,0,0,0,1-.2,3.19,3.19,0,0,0,.9-.6c.27-.24.4-.35.63-.35h.06c.23,0,.34.12.56.35a2.44,2.44,0,0,0,.87.66,2.08,2.08,0,0,0,.84.18,3.94,3.94,0,0,0,1.51-.4A4,4,0,0,1,68.45,37a2.2,2.2,0,0,1,.56.07,2.69,2.69,0,0,1,.93.45,1.67,1.67,0,0,0,1,.4l.3,0a2.23,2.23,0,0,0,1.22-.82c.19-.21.35-.38.48-.38h0c.09,0,.16.09.31.29a1.34,1.34,0,0,0,.93.67h.14a1.3,1.3,0,0,0,.83-.36,1.28,1.28,0,0,1,.66-.32L76,37a1.48,1.48,0,0,1,.63.17,1.54,1.54,0,0,0,.61.17,1,1,0,0,0,.4-.1,1.79,1.79,0,0,0,.72-1.56,1.64,1.64,0,0,0-.61-1.48.92.92,0,0,0-.43-.11,2,2,0,0,0-.78.22l-.29.12a2.19,2.19,0,0,1-.77.13,5.38,5.38,0,0,1-.78-.07,8.09,8.09,0,0,0-1.07-.09,5.31,5.31,0,0,0-1,.1,12.63,12.63,0,0,1-2.56.25,14.41,14.41,0,0,1-1.72-.1h0c-.29,0-7.13-.35-8.16-.35-.07,0-6.2.15-7.74.16A29.57,29.57,0,0,0,47,33.67Z"/><path class="cls-12" d="M75.23,32.26l.43,0A.35.35,0,0,1,75.23,32.26Z"/><path class="cls-12" d="M76,32.05l.08-.29C76.17,31.89,76.11,32,76,32.05Z"/><path class="cls-12" d="M75.68,32.23c0-.11.11-.16.22-.11Z"/><path class="cls-12" d="M51.9,30.84h-.19A.14.14,0,0,1,51.9,30.84Z"/><path class="cls-8" d="M61.15,29.32c-4.58,0-9.16,0-13.74,0-.91,0-1.08-.29-.87-1.1,1.15-4.2,3.93-6.75,7.92-8.33a18,18,0,0,1,12.48-.36,12.94,12.94,0,0,1,7.7,5.94,12.84,12.84,0,0,1,1,2.73c.32,1-.09,1.13-1,1.12C70.18,29.3,65.67,29.32,61.15,29.32Z"/><path class="cls-9" d="M61.1,18.61a19.21,19.21,0,0,1,5.84.94,12.94,12.94,0,0,1,7.7,5.94,12.84,12.84,0,0,1,1,2.73c.31,1-.06,1.12-.89,1.12h-.08c-2.17,0-4.35,0-6.52,0H54c-2.2,0-4.39,0-6.59,0h0c-.88,0-1-.3-.83-1.1,1.15-4.2,3.93-6.75,7.92-8.33a17.86,17.86,0,0,1,6.64-1.3m0-.59a18.53,18.53,0,0,0-6.86,1.34C49.8,21.12,47.1,24,46,28.09a1.27,1.27,0,0,0,1.39,1.84h.05c1.91,0,3.94,0,6.58,0H68.17c2.61,0,4.62,0,6.51,0h.09a1.65,1.65,0,0,0,1.39-.47A1.58,1.58,0,0,0,76.22,28l-.15-.5a10.93,10.93,0,0,0-.92-2.34,13.62,13.62,0,0,0-8-6.21,20.12,20.12,0,0,0-6-1Z"/><path class="cls-9" d="M56,21.32c-.39,0-.75,0-.76-.44s1.27-1,2-1c.31,0,.8.1.62.47C57.54,21.13,56.7,21.19,56,21.32Z"/><path class="cls-9" d="M67.08,21.55a4.13,4.13,0,0,1,1.65.61c.17.12.37.26.3.49s-.31.24-.53.22a3.68,3.68,0,0,1-1.68-.52c-.2-.13-.46-.27-.37-.56S66.84,21.57,67.08,21.55Z"/><path class="cls-9" d="M62.78,22.58a2,2,0,0,1-1.4-.43.23.23,0,0,1,0-.36,1.62,1.62,0,0,1,1.41-.08c.35.1.92.08.88.54S63.1,22.53,62.78,22.58Z"/><path class="cls-9" d="M61.07,20.53c-.21,0-.42,0-.62-.06s-.53-.1-.54-.39.32-.41.6-.44a2.15,2.15,0,0,1,.62,0c.44.06,1.2-.18,1.17.46S61.54,20.47,61.07,20.53Z"/><path class="cls-9" d="M54.38,21.79a2.9,2.9,0,0,1-2.5,1.45A3.31,3.31,0,0,1,54.38,21.79Z"/><path class="cls-9" d="M64.88,20.08c.42.15,1,.15,1.11.73,0,.23-.26.31-.47.26-.45-.11-1-.18-1.13-.72C64.33,20.12,64.65,20.09,64.88,20.08Z"/><path class="cls-9" d="M58.61,21.54c.25,0,.67-.05.6.35s-.51.41-.85.44-.58,0-.55-.3S58.26,21.58,58.61,21.54Z"/><rect class="cls-13" x="45.14" y="33.52" width="14.26" height="1.92" rx="0.64"/><path class="cls-11" d="M58.44,35.74H46.1a1.26,1.26,0,0,1,0-2.52H58.44a1.26,1.26,0,0,1,0,2.52ZM46.1,33.81a.67.67,0,0,0,0,1.34H58.44a.67.67,0,0,0,0-1.34Z"/><rect class="cls-13" x="59.5" y="33.52" width="17.04" height="1.92" rx="0.64"/><path class="cls-11" d="M75.59,35.74H60.47a1.26,1.26,0,1,1,0-2.52H75.59a1.26,1.26,0,0,1,0,2.52ZM60.47,33.81a.67.67,0,1,0,0,1.34H75.59a.67.67,0,0,0,0-1.34Z"/><rect class="cls-9" x="43.59" y="29.89" width="35.05" height="3.66" rx="1.22"/><path class="cls-11" d="M76.81,33.65H45.42a1.93,1.93,0,0,1,0-3.86H76.81a1.93,1.93,0,0,1,0,3.86ZM45.42,30a1.73,1.73,0,0,0,0,3.46H76.81a1.73,1.73,0,1,0,0-3.46Z"/><path class="cls-7" d="M68.75,29.78c.58,0,5.57-.05,7.25,0,.91,0,.82.49.81.77s0,.65-.81.67l-6.39,0c-1.62.06-2,.47-2,1.5s0,1.82,0,2.73a1.1,1.1,0,0,1-1.17,1.25,1.08,1.08,0,0,1-1.13-1.19c0-1.08,0-2.17,0-3.25,0-.77-.24-1.06-1.08-1-2.94,0-5.88,0-8.82.06a1,1,0,0,1-1-.51,1.44,1.44,0,0,0-1.65-.59,1.36,1.36,0,0,0-1.12,1.39c0,.7,0,1.4,0,2.1,0,.43-.12.8-.66.8s-.58-.42-.61-.83c-.06-.75.37-1.73-.21-2.21s-1.71-.15-2.59-.2c-.63,0-1.27,0-1.9,0s-.85-.2-.85-.74.36-.74.86-.74l5.14,0H68.75Z"/><path class="cls-9" d="M74.32,29.75H76c.89,0,.8.49.79.77s0,.65-.81.67l-6.39,0c-1.62.06-2,.47-2,1.5s0,1.82,0,2.73c0,.73-.35,1.25-1.15,1.25h0a1.08,1.08,0,0,1-1.13-1.19c0-1.08,0-2.17,0-3.25,0-.75-.22-1.05-1-1.05h0c-2.94,0-5.88,0-8.82.06h0a1,1,0,0,1-.93-.51,1.42,1.42,0,0,0-1.19-.65,1.88,1.88,0,0,0-.46.06,1.36,1.36,0,0,0-1.12,1.39c0,.7,0,1.4,0,2.1,0,.43-.12.8-.65.8h0c-.56,0-.58-.42-.61-.83-.06-.75.37-1.73-.21-2.21a1.46,1.46,0,0,0-1-.29c-.47,0-1,.09-1.45.09h-.15l-.79,0H45.72c-.53,0-.85-.2-.85-.74s.36-.74.86-.74h.41l4.73,0H68.75c.44,0,3.43,0,5.57,0m0-.2c-2.12,0-5.13,0-5.58,0h-23c-.91,0-1,.59-1,.94s.18.94,1,.94h1.11l.78,0h.16a6.3,6.3,0,0,0,.75-.05c.24,0,.48,0,.7,0a1.27,1.27,0,0,1,.87.24c.3.25.24.73.18,1.24a4.79,4.79,0,0,0-.05.84v0c0,.39.07,1,.8,1h0c.39,0,.85-.17.85-1s0-1.41,0-2.09a1.19,1.19,0,0,1,1-1.21,1.48,1.48,0,0,1,.41-.05,1.25,1.25,0,0,1,1,.56,1.18,1.18,0,0,0,1.09.59h0c1.51,0,3,0,4.53,0l4.29,0h0a1,1,0,0,1,.69.18.93.93,0,0,1,.15.66c0,.89,0,1.81,0,2.69v.57a1.27,1.27,0,0,0,1.33,1.38h0a1.29,1.29,0,0,0,1.35-1.44v-.79c0-.64,0-1.3,0-2,0-.87.22-1.24,1.79-1.3h0l4,0H76c.89,0,1-.4,1-.85h0v-.07a.8.8,0,0,0-.18-.65,1.09,1.09,0,0,0-.81-.26h-1.7Z"/><path class="cls-14" d="M46.25,94.33h0"/><path class="cls-14" d="M51.29,94.32h0"/><path class="cls-15" d="M51.32,94.24v.1a2.54,2.54,0,0,1-5.07,0v-.09c.23-.09.47-.17.71-.24a4.54,4.54,0,0,0,3.66,0C50.86,94.07,51.09,94.15,51.32,94.24Z"/><path class="cls-16" d="M51.24,93.66a4.49,4.49,0,0,1-1.44,1.62l0,0a4.43,4.43,0,0,1-2.51.77c-.33,0-.31-.37-.62-.44,0-.16-.39-.38-.39-.55V93.64h0a4.5,4.5,0,0,0,2.51.76A4.41,4.41,0,0,0,51.24,93.66Z"/><path class="cls-15" d="M51.29,93.76a4.51,4.51,0,0,1-5,0l0,0a4.49,4.49,0,0,1-2-3.71V86.28a4.49,4.49,0,0,1,4.48-4.49h0a4.49,4.49,0,0,1,4.49,4.49V90a4.49,4.49,0,0,1-2,3.71Z"/><path class="cls-16" d="M47.85,93.76a4.66,4.66,0,0,0,1.72.7,5.06,5.06,0,0,1-.79.06,4.49,4.49,0,0,1-2.5-.76l0,0a4.49,4.49,0,0,1-2-3.71V88.89c0-7,2.78-7,2.78-6.81l-.53.8a3.59,3.59,0,0,0,0,3.86,4.14,4.14,0,0,1,.51,1,1.14,1.14,0,0,1-1.08,1.11h-.06V90a4.49,4.49,0,0,0,2,3.71Z"/><path class="cls-17" d="M47,89.05a.41.41,0,1,1,0,.81.41.41,0,0,1,0-.81Z"/><path class="cls-17" d="M50.53,89.05a.41.41,0,1,1-.41.41A.4.4,0,0,1,50.53,89.05Z"/><path class="cls-18" d="M55.28,88.39a1,1,0,0,1-.39.79,1,1,0,0,1,.18.58,1,1,0,0,1-.82,1,1,1,0,0,1,0,.17,1,1,0,0,1-1,1,1.16,1.16,0,0,1-.37-.07A4.34,4.34,0,0,0,53.27,90V87.56a1,1,0,0,1-.55.17,1,1,0,0,1-.94-.63,1,1,0,0,1-.64.22,1,1,0,0,1-.93-.62,1,1,0,0,1-.69.27,1.05,1.05,0,0,1-.74-.32,1,1,0,0,1-.73.32,1,1,0,0,1-.69-.27,1,1,0,0,1-.93.62,1,1,0,0,1-.64-.22,1,1,0,0,1-.94.63,1,1,0,0,1-.55-.17V90a4.49,4.49,0,0,0,.39,1.84,1.16,1.16,0,0,1-.37.07,1,1,0,0,1-1-1,1,1,0,0,1,0-.17,1,1,0,0,1-.83-1,1,1,0,0,1,.19-.58,1,1,0,0,1-.39-.79,1,1,0,0,1,.56-.91,1,1,0,0,1-.36-.77,1,1,0,0,1,.84-1,.9.9,0,0,1-.07-.37,1,1,0,0,1,.8-1,.86.86,0,0,1,0-.28,1,1,0,0,1,1-1,1.12,1.12,0,0,1,.38.07,1.5,1.5,0,0,1,0-.22A1,1,0,0,1,47,82.07a1,1,0,0,1,1-.84,1,1,0,0,1,.81.41,1,1,0,0,1,1.81.43,1.07,1.07,0,0,1,.58-.18,1,1,0,0,1,1,1,1.5,1.5,0,0,1,0,.22,1.17,1.17,0,0,1,.38-.07,1,1,0,0,1,1,1,.86.86,0,0,1,0,.28,1,1,0,0,1,.8,1,.9.9,0,0,1-.07.37,1,1,0,0,1,.83,1,1,1,0,0,1-.35.77A1,1,0,0,1,55.28,88.39Z"/><path class="cls-17" d="M53.25,92.24a1.28,1.28,0,0,1-.48-.09l.22-.57a.58.58,0,0,0,.26,0,.71.71,0,0,0,.71-.71.53.53,0,0,0,0-.12.3.3,0,0,1,.24-.35.7.7,0,0,0,.58-.69.67.67,0,0,0-.13-.41.31.31,0,0,1,.06-.41.7.7,0,0,0,.27-.55.71.71,0,0,0-.39-.64.28.28,0,0,1-.16-.23.34.34,0,0,1,.1-.27.69.69,0,0,0,.25-.54.72.72,0,0,0-.58-.7.27.27,0,0,1-.21-.15.3.3,0,0,1,0-.26.75.75,0,0,0,0-.26.72.72,0,0,0-.56-.69.35.35,0,0,1-.2-.14.33.33,0,0,1,0-.24.69.69,0,0,0,0-.2.71.71,0,0,0-.71-.71.66.66,0,0,0-.27.06.32.32,0,0,1-.31,0,.29.29,0,0,1-.1-.3,1,1,0,0,0,0-.16.71.71,0,0,0-.71-.71.7.7,0,0,0-.4.12.3.3,0,0,1-.29,0,.3.3,0,0,1-.19-.23.71.71,0,0,0-1.26-.3.31.31,0,0,1-.25.13h0a.31.31,0,0,1-.24-.13.71.71,0,0,0-1.26.3.3.3,0,0,1-.19.23.3.3,0,0,1-.29,0,.7.7,0,0,0-.4-.12.71.71,0,0,0-.71.71,1,1,0,0,0,0,.16.31.31,0,0,1-.1.3.32.32,0,0,1-.31,0,.66.66,0,0,0-.27-.06.71.71,0,0,0-.71.71.69.69,0,0,0,0,.2.33.33,0,0,1,0,.24.35.35,0,0,1-.2.14.72.72,0,0,0-.56.69.75.75,0,0,0,0,.26.3.3,0,0,1,0,.26.27.27,0,0,1-.21.15.72.72,0,0,0-.58.7.71.71,0,0,0,.25.54.34.34,0,0,1,.1.27.28.28,0,0,1-.16.23.71.71,0,0,0-.39.64.71.71,0,0,0,.26.55.3.3,0,0,1,.07.41.67.67,0,0,0-.13.41.7.7,0,0,0,.58.69.3.3,0,0,1,.24.35.57.57,0,0,0,0,.12.71.71,0,0,0,.71.71.6.6,0,0,0,.26,0l.22.57a1.28,1.28,0,0,1-.48.09A1.32,1.32,0,0,1,43,91a1.3,1.3,0,0,1-.7-1.73,1.33,1.33,0,0,1-.31-.85,1.29,1.29,0,0,1,.41-1,1.29,1.29,0,0,1-.21-.72,1.33,1.33,0,0,1,.77-1.2c0-.05,0-.11,0-.17a1.32,1.32,0,0,1,.76-1.19v-.08A1.33,1.33,0,0,1,45,82.75h.06a1.32,1.32,0,0,1,1.31-1.17,1.34,1.34,0,0,1,.4.06A1.32,1.32,0,0,1,48,80.93a1.28,1.28,0,0,1,.81.28,1.32,1.32,0,0,1,2,.44,1.34,1.34,0,0,1,.4-.06,1.32,1.32,0,0,1,1.31,1.17h.06a1.33,1.33,0,0,1,1.32,1.32v.08a1.32,1.32,0,0,1,.76,1.19c0,.06,0,.12,0,.17a1.33,1.33,0,0,1,.77,1.2,1.38,1.38,0,0,1-.21.72,1.29,1.29,0,0,1,.41,1,1.33,1.33,0,0,1-.31.85,1.27,1.27,0,0,1,.11.52A1.31,1.31,0,0,1,54.57,91,1.32,1.32,0,0,1,53.25,92.24Z"/><g class="cls-19"><path class="cls-17" d="M44.3,88.89V87.56a1,1,0,0,0,.55.17H45a1,1,0,0,1,.31-.24,1,1,0,0,1-.36-.77,1,1,0,0,1,.84-1,.9.9,0,0,1-.07-.37,1,1,0,0,1,.8-1,.86.86,0,0,1,0-.28,1,1,0,0,1,1-1,1.17,1.17,0,0,1,.38.07,1.5,1.5,0,0,1,0-.22,1,1,0,0,1,1-1,1.07,1.07,0,0,1,.58.18,1,1,0,0,1,.6-.76,1,1,0,0,0-.39-.08,1,1,0,0,0-.82.41,1,1,0,0,0-.81-.41,1,1,0,0,0-1,.84,1,1,0,0,0-1.58.84,1.5,1.5,0,0,0,0,.22,1.12,1.12,0,0,0-.38-.07,1,1,0,0,0-1,1,.86.86,0,0,0,0,.28,1,1,0,0,0-.8,1,.9.9,0,0,0,.07.37,1,1,0,0,0-.84,1,1,1,0,0,0,.36.77,1,1,0,0,0-.56.91,1,1,0,0,0,.39.79,1,1,0,0,0-.19.58,1,1,0,0,0,.83,1,1,1,0,0,0,0,.17,1,1,0,0,0,1,1,1.16,1.16,0,0,0,.37-.07A4.49,4.49,0,0,1,44.3,90Z"/></g><path class="cls-1" d="M49.69,82.53h0l-.06,0,0,0a.1.1,0,0,1-.05,0,.27.27,0,0,1-.09-.21.13.13,0,0,1,0-.06s0,0,0-.06l0,0,0,0,.05,0,0,0,.06,0a.3.3,0,0,1,.27.08.31.31,0,0,1,.09.22.27.27,0,0,1-.09.21A.29.29,0,0,1,49.69,82.53Z"/><path class="cls-20" d="M53.23,93.76A1.69,1.69,0,0,1,52,93.21a.31.31,0,0,1,0-.43.29.29,0,0,1,.43,0,1.08,1.08,0,0,0,.8.35,1.07,1.07,0,0,0,0-2.13.3.3,0,1,1,0-.6,1.67,1.67,0,0,1,0,3.34Z"/><path class="cls-20" d="M44.34,93.76a1.67,1.67,0,0,1,0-3.34.3.3,0,1,1,0,.6,1.07,1.07,0,0,0,0,2.13,1.08,1.08,0,0,0,.8-.35.29.29,0,0,1,.43,0,.31.31,0,0,1,0,.43A1.69,1.69,0,0,1,44.34,93.76Z"/><path class="cls-1" d="M54,87.07a.36.36,0,0,1-.22-.09l0,0,0-.05s0,0,0-.06a.19.19,0,0,1,0-.12.43.43,0,0,1,0,0l0-.06,0,0a.32.32,0,0,1,.28-.09l0,0,.05,0a.1.1,0,0,1,0,0l0,0,0,.06a.43.43,0,0,1,0,0,.13.13,0,0,1,0,.06.31.31,0,0,1-.09.22l0,0-.05,0,0,0Z"/><path class="cls-1" d="M54.29,88.69h-.12l-.05,0,0,0a.33.33,0,0,1-.09-.21.36.36,0,0,1,.09-.22.31.31,0,0,1,.22-.09.27.27,0,0,1,.21.09.31.31,0,0,1,.09.22.29.29,0,0,1-.09.21A.27.27,0,0,1,54.29,88.69Z"/><path class="cls-1" d="M51.27,83.24H51.2a.32.32,0,0,1-.18-.12.36.36,0,0,1-.16-.11.32.32,0,0,1,.08-.43.48.48,0,0,1,.23-.07.41.41,0,0,1,.41.41.29.29,0,0,1,0,.09A.3.3,0,0,1,51.27,83.24Z"/><path class="cls-1" d="M52.64,84.41h-.09a.37.37,0,0,1-.18-.14.36.36,0,0,1-.15-.17.3.3,0,0,1,.17-.39.4.4,0,0,1,.55.37.49.49,0,0,1,0,.12A.31.31,0,0,1,52.64,84.41Zm-.3-.39Z"/><path class="cls-1" d="M53.39,85.68a.23.23,0,0,1-.11,0,.31.31,0,0,1-.18-.21.3.3,0,0,1-.08-.27.31.31,0,0,1,.37-.23.41.41,0,0,1,.32.39.4.4,0,0,1,0,.15A.3.3,0,0,1,53.39,85.68Z"/><path class="cls-17" d="M48.78,94.83A4.72,4.72,0,0,1,46.11,94l0,0a4.83,4.83,0,0,1-1.66-2A4.66,4.66,0,0,1,44,90V87.56a.3.3,0,0,1,.16-.27.29.29,0,0,1,.31,0,.77.77,0,0,0,.39.11.71.71,0,0,0,.66-.44.32.32,0,0,1,.21-.18.3.3,0,0,1,.26.06.7.7,0,0,0,1.1-.28.31.31,0,0,1,.22-.18.33.33,0,0,1,.27.07.71.71,0,0,0,.48.19.69.69,0,0,0,.51-.22.32.32,0,0,1,.22-.1h0a.33.33,0,0,1,.23.1.69.69,0,0,0,.51.22.71.71,0,0,0,.48-.19.3.3,0,0,1,.27-.07.31.31,0,0,1,.22.18.7.7,0,0,0,1.1.28.3.3,0,0,1,.26-.06.32.32,0,0,1,.21.18.71.71,0,0,0,.66.44.77.77,0,0,0,.39-.11.29.29,0,0,1,.31,0,.3.3,0,0,1,.16.27V90a4.66,4.66,0,0,1-.42,2,4.78,4.78,0,0,1-1.67,2h0A4.73,4.73,0,0,1,48.78,94.83ZM44.6,88v2A4.13,4.13,0,0,0,45,91.74a4.29,4.29,0,0,0,1.46,1.75h0a4.19,4.19,0,0,0,4.67,0h0a4.21,4.21,0,0,0,1.46-1.75h0A4.13,4.13,0,0,0,53,90V88l-.25,0a1.32,1.32,0,0,1-1-.51,1.36,1.36,0,0,1-.53.11,1.32,1.32,0,0,1-1-.5,1.31,1.31,0,0,1-.59.14,1.37,1.37,0,0,1-.74-.22,1.32,1.32,0,0,1-1.32.08,1.33,1.33,0,0,1-1,.5,1.36,1.36,0,0,1-.53-.11,1.31,1.31,0,0,1-1,.51Z"/><path class="cls-15" d="M69.83,87.52A1.49,1.49,0,1,1,68.34,89,1.49,1.49,0,0,1,69.83,87.52Z"/><path class="cls-15" d="M78.43,87.52A1.49,1.49,0,1,1,76.94,89,1.49,1.49,0,0,1,78.43,87.52Z"/><path class="cls-17" d="M69.83,90.82A1.81,1.81,0,1,1,71.64,89,1.81,1.81,0,0,1,69.83,90.82Zm0-3a1.17,1.17,0,0,0,0,2.34,1.17,1.17,0,0,0,0-2.34Z"/><path class="cls-17" d="M78.43,90.82A1.81,1.81,0,1,1,80.24,89,1.81,1.81,0,0,1,78.43,90.82Zm0-3A1.17,1.17,0,1,0,79.6,89,1.17,1.17,0,0,0,78.43,87.84Z"/><path class="cls-17" d="M78.85,81.53V89a1.27,1.27,0,0,1-1.27-1.28V86.5a.74.74,0,0,0-1-.68,6,6,0,0,1-4.84,0,.79.79,0,0,0-.29-.06.74.74,0,0,0-.74.74v1.23A1.28,1.28,0,0,1,69.4,89V81.53Z"/><path class="cls-15" d="M76.8,93.57v1.92a2.67,2.67,0,0,1-5.34,0V93.57h0a4.76,4.76,0,0,0,5.28,0Z"/><path class="cls-15" d="M78.85,89v1.2a4.72,4.72,0,0,1-2,3.9l0,0a4.76,4.76,0,0,1-5.28,0l0,0a4.73,4.73,0,0,1-2.06-3.9V89a1.28,1.28,0,0,0,1.28-1.28V86.5a.74.74,0,0,1,.74-.74.79.79,0,0,1,.29.06,6,6,0,0,0,4.84,0,.74.74,0,0,1,1,.68v1.23A1.27,1.27,0,0,0,78.85,89Z"/><path class="cls-17" d="M74.13,95.25a5,5,0,0,1-2.81-.85h0l0,0a5,5,0,0,1-2.2-4.16V81.53a.33.33,0,0,1,.32-.32h9.45a.32.32,0,0,1,.32.32v8.68A5,5,0,0,1,77,94.37l0,0h0A5,5,0,0,1,74.13,95.25Zm-4.4-13.4v8.36a4.42,4.42,0,0,0,1.91,3.64h0a4.33,4.33,0,0,0,2.45.74,4.39,4.39,0,0,0,2.46-.74h0a4.42,4.42,0,0,0,1.91-3.64V81.85Z"/><path class="cls-17" d="M78.85,89.33a1.6,1.6,0,0,1-1.59-1.6V86.5a.42.42,0,0,0-.19-.35.39.39,0,0,0-.39,0,6.4,6.4,0,0,1-5.1,0,.32.32,0,0,0-.16,0,.42.42,0,0,0-.42.42v1.23a1.6,1.6,0,0,1-1.6,1.6v-.64a1,1,0,0,0,1-1V86.5a1.05,1.05,0,0,1,1.48-1,5.7,5.7,0,0,0,4.58,0,1,1,0,0,1,1,.09,1,1,0,0,1,.48.88v1.23a1,1,0,0,0,.95,1v.64Z"/><path class="cls-1" d="M77.89,85.16a.32.32,0,0,1-.32-.32V83.78a.32.32,0,0,1,.32-.32.32.32,0,0,1,.32.32v1.06A.32.32,0,0,1,77.89,85.16Z"/><path class="cls-1" d="M77.89,83h-.06a.08.08,0,0,1-.06,0l-.06,0,0,0,0,0,0-.06s0,0,0-.06v-.12s0-.05,0-.06l0-.06,0,0,0,0,.06,0,.06,0H78l.06,0,.06,0,0,0,0,0a.09.09,0,0,1,0,.06.08.08,0,0,1,0,.06.13.13,0,0,1,0,.06.3.3,0,0,1-.1.22l0,0A.09.09,0,0,1,78,83L78,83Z"/><path class="cls-17" d="M72.44,90.1a.31.31,0,0,1-.22-.09.31.31,0,0,1,0-.46.29.29,0,0,1,.28-.08h.07l.05,0,0,0,0,0,0,.06s0,0,0,.06v.12s0,0,0,.06l0,.06,0,.05A.32.32,0,0,1,72.44,90.1Z"/><path class="cls-17" d="M76.07,90.1H76l0,0-.05,0,0-.05s0,0,0-.06a.14.14,0,0,1,0-.06.19.19,0,0,1,0-.12.14.14,0,0,1,0-.06s0,0,0-.06l0,0,.05,0,0,0H76a.31.31,0,0,1,.29.08l0,0,0,.06s0,0,0,.06v.12s0,0,0,.06l0,.06,0,.05A.32.32,0,0,1,76.07,90.1Z"/><path class="cls-1" d="M76.64,87.78a.32.32,0,0,1-.32-.32v-.29a.33.33,0,0,1,.32-.33.32.32,0,0,1,.32.33v.29A.32.32,0,0,1,76.64,87.78Z"/><path class="cls-16" d="M76.71,93.6a4.72,4.72,0,0,1-1.52,1.71l0,0a4.71,4.71,0,0,1-3.64.69,2.33,2.33,0,0,1-.06-.53V93.57h0a4.78,4.78,0,0,0,2.64.8A4.66,4.66,0,0,0,76.71,93.6Z"/><path class="cls-16" d="M73.15,94.13a4.58,4.58,0,0,0,1.81.73,4.57,4.57,0,0,1-.83.07,4.7,4.7,0,0,1-2.64-.8l0,0a4.73,4.73,0,0,1-2.06-3.9V89a1.28,1.28,0,0,0,1.28-1.28V86.5a.74.74,0,0,1,.74-.74.79.79,0,0,1,.29.06,5.63,5.63,0,0,0,.75.27.73.73,0,0,0-.12.41v1.23A1.28,1.28,0,0,1,71.06,89v1.2a4.73,4.73,0,0,0,2.06,3.9Z"/><path class="cls-17" d="M65.46,71.37h-8.7a.3.3,0,0,1-.29-.3.29.29,0,0,1,.29-.29h8.7a.29.29,0,0,1,.3.29A.3.3,0,0,1,65.46,71.37Z"/><path class="cls-21" d="M63.57,82.59v.73c0,.2,0,1.5,0,1.69,0,.65-1.56,1.1-2.45,1.1-1.33,0-2.45,1.33-2.45-1.7V82.59h0a5.36,5.36,0,0,0,2.42.74,4.46,4.46,0,0,0,2.43-.74Z"/><path class="cls-22" d="M61.11,69.81c1,0,1.79.54,1.79,1.21s-.8,1.21-1.79,1.21-1.78-.54-1.78-1.21S60.13,69.81,61.11,69.81Z"/><path class="cls-16" d="M60.76,71c0-.5.44-.92,1.07-1.11a2.37,2.37,0,0,0-.72-.1c-1,0-1.78.54-1.78,1.21s.8,1.21,1.78,1.21a2.72,2.72,0,0,0,.72-.1C61.2,71.94,60.76,71.51,60.76,71Z"/><path class="cls-17" d="M61.11,72.52C60,72.52,59,71.86,59,71s.91-1.51,2.07-1.51,2.08.66,2.08,1.51S62.28,72.52,61.11,72.52Zm0-2.42c-.8,0-1.49.42-1.49.92s.69.91,1.49.91,1.49-.42,1.49-.91S61.92,70.1,61.11,70.1Z"/><path class="cls-21" d="M57.15,77.09a1.37,1.37,0,1,1-1.37,1.37A1.37,1.37,0,0,1,57.15,77.09Z"/><circle class="cls-21" cx="65.07" cy="78.46" r="1.37"/><path class="cls-17" d="M57.15,80.13a1.67,1.67,0,1,1,1.67-1.67A1.67,1.67,0,0,1,57.15,80.13Zm0-2.74a1.08,1.08,0,1,0,1.08,1.07A1.07,1.07,0,0,0,57.15,77.39Z"/><path class="cls-17" d="M65.07,80.13a1.67,1.67,0,1,1,1.67-1.67A1.67,1.67,0,0,1,65.07,80.13Zm0-2.74a1.08,1.08,0,1,0,1.08,1.07A1.07,1.07,0,0,0,65.07,77.39Z"/><path class="cls-16" d="M63.49,83.21a4.31,4.31,0,0,1-1.4,1.57l0,0a4.33,4.33,0,0,1-2.43.74c-.32,0-.31-.36-.61-.42,0-.16-.37-.37-.37-.54V83.19h0a4.34,4.34,0,0,0,4.8,0Z"/><path class="cls-21" d="M63.54,83.18a4.34,4.34,0,0,1-4.85,0l0,0a4.35,4.35,0,0,1-1.9-3.59V75.93a4.35,4.35,0,0,1,4.35-4.35h0a4.35,4.35,0,0,1,4.35,4.35v3.64a4.35,4.35,0,0,1-1.89,3.59Z"/><path class="cls-17" d="M61.11,72.56a3.71,3.71,0,0,1,.67.07"/><path class="cls-1" d="M61.78,72.92h-.06a3.08,3.08,0,0,0-.61-.06.3.3,0,0,1,0-.59,3.54,3.54,0,0,1,.73.07.3.3,0,0,1,.23.35A.29.29,0,0,1,61.78,72.92Z"/><path class="cls-17" d="M59.56,79.47a.29.29,0,0,1-.21-.09.31.31,0,0,1-.09-.21.33.33,0,0,1,.09-.21.33.33,0,0,1,.27-.08l.05,0,0,0,.05,0,0,.05a.08.08,0,0,1,0,0,.17.17,0,0,1,0,0v.12a.14.14,0,0,1,0,.06l0,0s0,0,0,0A.29.29,0,0,1,59.56,79.47Z"/><path class="cls-17" d="M62.9,79.47h0l-.06,0,0,0-.05,0,0,0,0,0s0,0,0-.06v-.12s0,0,0,0l0,0,0-.05.05,0,0,0,.06,0a.31.31,0,0,1,.26.08l0,.05,0,0a.43.43,0,0,0,0,0,.18.18,0,0,1,0,.12s0,0,0,.06l0,0,0,0A.27.27,0,0,1,62.9,79.47Z"/><path class="cls-16" d="M60.21,83.18a4.23,4.23,0,0,0,1.67.67,3.94,3.94,0,0,1-.77.07,4.27,4.27,0,0,1-2.42-.74l0,0a4.35,4.35,0,0,1-1.9-3.59V78.46c0-6.83,2.7-6.75,2.7-6.61l-.51.78a3.51,3.51,0,0,0-.05,3.75,4.66,4.66,0,0,1,.5,1,1.13,1.13,0,0,1-1,1.08h-.06v1.11a4.35,4.35,0,0,0,1.89,3.59Z"/><path class="cls-22" d="M65.46,75.93v1.43a3.38,3.38,0,0,0-3-1.4,10.92,10.92,0,0,1-2.68,0,3.39,3.39,0,0,0-3,1.4V75.93a4.35,4.35,0,1,1,8.7,0Z"/><g class="cls-19"><path class="cls-17" d="M58.52,75.93A4.35,4.35,0,0,1,62,71.67a4.24,4.24,0,0,0-.88-.09,4.35,4.35,0,0,0-4.35,4.35v1.43a3.8,3.8,0,0,1,1.76-1.29Z"/></g><path class="cls-1" d="M64.29,75.3a.29.29,0,0,1-.28-.22A2.94,2.94,0,0,0,62.7,73.3l-.08,0a.29.29,0,1,1,.29-.51l.1.06a3.48,3.48,0,0,1,1.57,2.13.3.3,0,0,1-.21.36Z"/><path class="cls-17" d="M65.46,77.65a.3.3,0,0,1-.24-.12h0a3.06,3.06,0,0,0-2.73-1.28,10.55,10.55,0,0,1-2.75,0A3.09,3.09,0,0,0,57,77.53a.3.3,0,0,1-.41.07.29.29,0,0,1-.08-.41,3.7,3.7,0,0,1,3.29-1.53,9.51,9.51,0,0,0,2.61,0,3.7,3.7,0,0,1,3.29,1.53.29.29,0,0,1-.08.41A.26.26,0,0,1,65.46,77.65Z"/><path class="cls-17" d="M61.11,84.21a4.62,4.62,0,0,1-2.59-.79h0l0,0a4.64,4.64,0,0,1-2-3.83V75.93a4.65,4.65,0,0,1,9.29,0v3.64a4.66,4.66,0,0,1-2,3.83l0,0h0A4.57,4.57,0,0,1,61.11,84.21Zm0-12.33a4.05,4.05,0,0,0-4,4.05v3.64a4.06,4.06,0,0,0,1.77,3.35h0l0,0a4.11,4.11,0,0,0,4.53,0h0a4.06,4.06,0,0,0,1.77-3.35V75.93A4.05,4.05,0,0,0,61.11,71.88Z"/><path class="cls-17" d="M64.44,80.13a.29.29,0,0,1-.29-.3v-2.5a1.12,1.12,0,0,0-.66-1,.29.29,0,0,1-.14-.39.3.3,0,0,1,.39-.15,1.72,1.72,0,0,1,1,1.56v2.5A.29.29,0,0,1,64.44,80.13Z"/><polygon class="cls-14" points="63.32 92.26 66.5 91.1 64.77 96.41 62.45 93.71 63.32 92.26"/><polygon class="cls-16" points="66.36 91.34 64.04 92.79 63.75 92.21 66.36 91.34"/><path class="cls-17" d="M64.77,96.7a.29.29,0,0,1-.22-.1l-2.32-2.7a.3.3,0,0,1,0-.34l.87-1.45a.26.26,0,0,1,.15-.12l3.18-1.16a.28.28,0,0,1,.3.07.29.29,0,0,1,.08.29L65,96.5a.28.28,0,0,1-.22.19Zm-2-3,1.84,2.15L66,91.58l-2.53.92Z"/><path class="cls-21" d="M63.91,104.22v.93a2,2,0,0,1-2,2h0c-1.12,0-2-.34-2-1.46v-1.5a4.28,4.28,0,0,0,4,0Z"/><path class="cls-16" d="M63.91,104.22c-.06.11.07.67,0,.78a4.19,4.19,0,0,1-1.19,1.22l0,0c-.68.46-1.5.16-2.38.16-.26,0-.3-.23-.46-.35v-1.83a5.3,5.3,0,0,0,2.09.58A3,3,0,0,0,63.91,104.22Z"/><path class="cls-21" d="M58,98a1.34,1.34,0,1,1-1.34,1.34A1.35,1.35,0,0,1,58,98Z"/><circle class="cls-21" cx="65.78" cy="99.3" r="1.34"/><path class="cls-17" d="M58,100.93a1.63,1.63,0,1,1,1.64-1.63A1.63,1.63,0,0,1,58,100.93Zm0-2.69a1.06,1.06,0,1,0,1.06,1.06A1.06,1.06,0,0,0,58,98.24Z"/><path class="cls-17" d="M65.78,100.93a1.63,1.63,0,1,1,1.63-1.63A1.63,1.63,0,0,1,65.78,100.93Zm0-2.69a1.06,1.06,0,1,0,1.06,1.06A1.06,1.06,0,0,0,65.78,98.24Z"/><path class="cls-21" d="M66.16,96.82v3.56a4.25,4.25,0,0,1-1.86,3.53l0,0a4.29,4.29,0,0,1-4.76,0l0,0a4.27,4.27,0,0,1-1.86-3.53V96.82a4.27,4.27,0,0,1,4.27-4.27h0a4.21,4.21,0,0,1,2.7,1l.05,0A4.23,4.23,0,0,1,66.16,96.82Z"/><path class="cls-17" d="M61.9,104.94a4.63,4.63,0,0,1-2.55-.77h0l0,0a4.55,4.55,0,0,1-2-3.76V96.82a4.56,4.56,0,1,1,9.11,0v3.56a4.55,4.55,0,0,1-2,3.76l0,0h0A4.57,4.57,0,0,1,61.9,104.94Zm0-12.1a4,4,0,0,0-4,4v3.56a4,4,0,0,0,1.73,3.29h0l0,0a4,4,0,0,0,4.43,0l0,0h0a4,4,0,0,0,1.73-3.29V96.82A4,4,0,0,0,61.9,92.84Z"/><path class="cls-17" d="M60.24,99.45a.39.39,0,1,1-.39.38A.39.39,0,0,1,60.24,99.45Z"/><path class="cls-17" d="M63.55,99.45a.39.39,0,1,1-.38.38A.38.38,0,0,1,63.55,99.45Z"/><path class="cls-16" d="M61,103.91a4.27,4.27,0,0,1-1.86-3.53V99.3h.06a1,1,0,0,0,.63-.25c.41.7,1.07,1.51,1.72.83a10.35,10.35,0,0,0,1.69-3.71l-3.14,1.71c-.12-.24-.28-.51-.35-.62a3.43,3.43,0,0,1,0-3.68l.51-.76c0-.14-2.65-.22-2.65,6.48v1.08a4.27,4.27,0,0,0,1.86,3.53l0,0a4.28,4.28,0,0,0,2.38.72,4.52,4.52,0,0,0,.74-.06,4.41,4.41,0,0,1-1.63-.66Z"/><g class="cls-19"><path class="cls-23" d="M61.42,99.51a4.36,4.36,0,0,0-5.36.14s-.24,3.09,2.7,3.19S61.42,99.51,61.42,99.51Z"/><path class="cls-23" d="M62.38,99.51a4.34,4.34,0,0,1,5.35.14s.24,3.09-2.7,3.19S62.38,99.51,62.38,99.51Z"/></g><path class="cls-24" d="M58.89,102.84h-.13a2.86,2.86,0,0,1-2.92-2.55,1.5,1.5,0,0,1,.8-1.61,4.66,4.66,0,0,1,3.54-.4A4.06,4.06,0,0,1,61.6,99a.26.26,0,0,1,.1.2,4,4,0,0,1-.86,2.87A2.57,2.57,0,0,1,58.89,102.84Zm0-4.17a4.29,4.29,0,0,0-2,.52,1,1,0,0,0-.5,1,2.3,2.3,0,0,0,2.36,2.07,2.08,2.08,0,0,0,1.65-.59,3.42,3.42,0,0,0,.71-2.3A3.76,3.76,0,0,0,60,98.83,3.62,3.62,0,0,0,58.91,98.67Z"/><path class="cls-1" d="M59.32,101.93a.29.29,0,0,1-.06-.57,1,1,0,0,0,.54-.29,1.67,1.67,0,0,0,.36-.73.29.29,0,1,1,.56.14,2.21,2.21,0,0,1-.49,1,1.54,1.54,0,0,1-.86.46Z"/><path class="cls-1" d="M60.55,100h-.06l-.05,0,0,0,0,0a.29.29,0,0,1-.09-.21.27.27,0,0,1,.09-.2s0,0,0,0l0,0,.05,0a.29.29,0,0,1,.35.28.27.27,0,0,1-.29.29Z"/><path class="cls-24" d="M64.91,102.84a2.58,2.58,0,0,1-2-.77,4.1,4.1,0,0,1-.86-2.87.26.26,0,0,1,.1-.2,4.19,4.19,0,0,1,1.66-.78,4.85,4.85,0,0,1,4,.91.32.32,0,0,1,.13.21,3.8,3.8,0,0,1-.81,2.58,2.91,2.91,0,0,1-2.17.92Zm-2.25-3.47a3.42,3.42,0,0,0,.71,2.3,2.08,2.08,0,0,0,1.65.59,2.4,2.4,0,0,0,1.76-.72,3.19,3.19,0,0,0,.66-2A4.25,4.25,0,0,0,64,98.78,3.75,3.75,0,0,0,62.66,99.37Z"/><path class="cls-1" d="M65.58,101.89a.29.29,0,0,1-.27-.22.28.28,0,0,1,.2-.35,1.28,1.28,0,0,0,.62-.36,1.39,1.39,0,0,0,.29-.51.29.29,0,0,1,.37-.17.28.28,0,0,1,.17.37,2.17,2.17,0,0,1-.4.7,1.9,1.9,0,0,1-.9.53Z"/><path class="cls-1" d="M66.85,100.12h-.06l-.05,0,0,0,0,0a.29.29,0,0,1-.09-.21.27.27,0,0,1,.09-.2.08.08,0,0,1,0,0l0,0H67l.05,0a.08.08,0,0,1,0,0l0,0,0,0s0,0,0,.06a.07.07,0,0,1,0,0,.29.29,0,0,1-.09.21A.28.28,0,0,1,66.85,100.12Z"/><path class="cls-24" d="M62.38,99.51h-1a.29.29,0,0,1,0-.58h1a.29.29,0,0,1,0,.58Z"/><rect class="cls-24" x="61.25" y="99.8" width="1.2" height="0.58"/><path class="cls-25" d="M66.16,98a5.22,5.22,0,0,1-3.08-1.91c-.73,1.45-3.52,3.52-5.45,4.31a3.3,3.3,0,0,1-3.13-.07s3-.77,2.41-3.42a4.38,4.38,0,0,1,4.24-5.26,3.25,3.25,0,0,1,3.45,1.89s0,0,0,0h0A3.5,3.5,0,0,1,66.16,98Z"/><path class="cls-16" d="M61.92,91.65a4.51,4.51,0,0,0-3,5c.5,3.56-3.71,3.79-3.71,3.79a11,11,0,0,0,1.69.16,3.08,3.08,0,0,1-2.41-.31s3-.77,2.41-3.42a4.38,4.38,0,0,1,4.24-5.26A6.37,6.37,0,0,1,61.92,91.65Z"/><path class="cls-17" d="M56,101a3.12,3.12,0,0,1-1.71-.46.3.3,0,0,1-.12-.29.31.31,0,0,1,.21-.23c.12,0,2.76-.74,2.2-3.07a4.37,4.37,0,0,1,.78-3.67,4.92,4.92,0,0,1,3.73-1.94A3.9,3.9,0,0,1,64,92.2a3.43,3.43,0,0,1,.86,1.12,3.18,3.18,0,0,1,1.85,2.3,3.48,3.48,0,0,1-.31,2.55.3.3,0,0,1-.26.1,5.36,5.36,0,0,1-3-1.7,14.2,14.2,0,0,1-5.38,4.08A4.4,4.4,0,0,1,56,101Zm-.78-.68a3.41,3.41,0,0,0,2.26-.21c1.83-.76,4.6-2.79,5.3-4.18a.28.28,0,0,1,.23-.16.29.29,0,0,1,.26.12A5,5,0,0,0,66,97.66a3.38,3.38,0,0,0,.1-1.91,2.61,2.61,0,0,0-1.52-1.9.28.28,0,0,1-.25-.2v0a3,3,0,0,0-3.18-1.71,4.4,4.4,0,0,0-3.3,1.72,3.75,3.75,0,0,0-.67,3.18,2.77,2.77,0,0,1-1.08,3A4.15,4.15,0,0,1,55.26,100.33Z"/><path class="cls-1" d="M65.61,97.22h0a.29.29,0,0,1-.25-.32,2.85,2.85,0,0,0-.11-1.2,1.69,1.69,0,0,0-.53-.8.28.28,0,0,1,.36-.44,2.25,2.25,0,0,1,.72,1.05A3.52,3.52,0,0,1,65.9,97,.3.3,0,0,1,65.61,97.22Z"/><path class="cls-17" d="M64.09,94.67a.32.32,0,0,1-.16,0,.29.29,0,0,1-.08-.4l.53-.82a.28.28,0,0,1,.4-.09.29.29,0,0,1,.08.4l-.53.82A.28.28,0,0,1,64.09,94.67Z"/><path class="cls-17" d="M63.08,96.36a.28.28,0,0,1-.15,0,.29.29,0,0,1-.1-.39l.19-.34a.29.29,0,0,1,.39-.11.29.29,0,0,1,.11.4l-.19.33A.27.27,0,0,1,63.08,96.36Z"/><path class="cls-26" d="M102.09,52.56c-.64,0-1.15.95-1.15,2.12a3.83,3.83,0,0,0,.13,1c-.1.11-.25.27-.55.56a.62.62,0,0,1-.31.2,1,1,0,0,1-.25,0,.09.09,0,0,0,0-.05h-.1a.46.46,0,0,0,.2-.14.54.54,0,0,0,.08-.44,12.53,12.53,0,0,0-.47-2.14c-.18-.54-.39-1.07-.55-1.62a9.6,9.6,0,0,0-.59-1.32,1.09,1.09,0,0,0-.21-.28,1.21,1.21,0,0,0-.49-.23c-.22,0-1.21-.09-2.72-.14,1.61,0,2.59.08,2.91.13.11,0,.55.1.69-.1a.3.3,0,0,0,0-.34c-.11-.14-.31,0-.49-.18a.56.56,0,0,1-.18-.31,1.32,1.32,0,0,0-.18-.36c-.26-.38-.69-.54-1.68-.75s-1.27-.23-1.27-.23c-1.95-.22-3.54-.27-3.9-.28-.51,0-1.21,0-2,0h0c-.82,0-1.51,0-2,0s-2,.06-3.9.28c0,0-.42,0-1.28.23s-1.41.37-1.68.75a1.32,1.32,0,0,0-.18.36.56.56,0,0,1-.18.31c-.18.13-.38,0-.49.18a.3.3,0,0,0,0,.34c.13.2.57.12.68.1.33-.05,1.34-.1,3-.13-1.53,0-2.54.1-2.76.14a1.13,1.13,0,0,0-.49.23,1.09,1.09,0,0,0-.21.28A9.6,9.6,0,0,0,78.77,52c-.17.55-.37,1.08-.55,1.62a12,12,0,0,0-.48,2.14.63.63,0,0,0,.08.44.52.52,0,0,0,.2.14h-.13s0,0,0,.07-.18,0-.32,0a.69.69,0,0,1-.32-.2l-.45-.46A3.67,3.67,0,0,0,77,54.68c0-1.17-.51-2.12-1.15-2.12s-1.15.95-1.15,2.12.52,2.12,1.15,2.12a1,1,0,0,0,.85-.68l.12.12a2.39,2.39,0,0,1,.45.54,1.31,1.31,0,0,1,.13.29c0,.13,0,.2.09.26a.29.29,0,0,0,.21.07h0q-.06.28-.12.63a.43.43,0,0,1-.25.17c-.12,0-.17,0-.24,0S77,58.73,77,59a.59.59,0,0,0,.17.42.37.37,0,0,0,.17.08c0-.1,0-.21,0-.32a30.78,30.78,0,0,0-.31,4.2A20.18,20.18,0,0,0,77.47,67c0-.17-.08-.35-.11-.53s-.1-.63-.14-.93a3.6,3.6,0,0,1-.06.49,3.91,3.91,0,0,0-.14.82c0,.22,0,.29.07.33a.49.49,0,0,0,.44.09.94.94,0,0,1,0-.16c.14.63.32,1.09.5,1.16a5.66,5.66,0,0,0,.87.23,3.24,3.24,0,0,1-1-.27.64.64,0,0,1-.12-.13c-.12-.22-.58-.3-.89.11a1.61,1.61,0,0,0-.23.94,1.91,1.91,0,0,0,.53,1.12,2.44,2.44,0,0,0,1.15.64l.3.09a.32.32,0,0,1,.07.2c0,.39-.07,1.37,0,2a1.43,1.43,0,0,0,.27.81,1.45,1.45,0,0,0,.78.43,2.76,2.76,0,0,0,1.42,0,1.7,1.7,0,0,0,.75-.32,1.45,1.45,0,0,0,.29-.33c.22-.34.21-.66.2-1.47v-1l3.17.13c.84,0,1.91.06,3.18.07h.47c1.26,0,2.34,0,3.18-.07l3.19-.14c0,.44,0,.79,0,1,0,.81,0,1.13.2,1.47a1.45,1.45,0,0,0,.29.33,1.7,1.7,0,0,0,.75.32,2.77,2.77,0,0,0,1.42,0,1.44,1.44,0,0,0,.79-.43,1.42,1.42,0,0,0,.26-.81c.07-.68,0-1.66,0-2a.4.4,0,0,1,.08-.21h0l.27-.08a2.49,2.49,0,0,0,1.15-.64,1.78,1.78,0,0,0,.54-1.17,1.5,1.5,0,0,0-.25-.87.62.62,0,0,0-.85-.14l-.06.08-.07,0a3,3,0,0,1-1.06.28,6,6,0,0,0,.87-.23c.18-.07.35-.53.5-1.16a.94.94,0,0,0,0,.16.47.47,0,0,0,.43-.09s.08-.11.08-.33a3.91,3.91,0,0,0-.14-.82,3.33,3.33,0,0,1-.07-.49c0,.3-.08.61-.14.93s-.06.36-.1.53a20.07,20.07,0,0,0,.38-3.68,30.93,30.93,0,0,0-.3-4.2,3.06,3.06,0,0,0,.05.32.42.42,0,0,0,.17-.08.64.64,0,0,0,.17-.42c0-.23.09-.68-.08-.76s-.12,0-.24,0a.43.43,0,0,1-.25-.17c0-.22-.08-.43-.12-.61h0a.31.31,0,0,0,.17-.07c.06-.06,0-.13.08-.26a1.45,1.45,0,0,1,.14-.29,2.39,2.39,0,0,1,.45-.54l.2-.2c.22.46.53.76.89.76.63,0,1.15-.95,1.15-2.12S102.72,52.56,102.09,52.56Zm-20.3,4.23c2.49.21,4.86.3,7.1.3H89c2.23,0,4.6-.09,7.1-.3.82-.06,1.62-.14,2.42-.23-1.27.16-2.61.29-4,.38l-.73.05-.43,0h-.29l-.51,0h-.19l-.61,0h-.09l-.61,0H88.38c-1.57,0-3.24,0-5-.16-1.38-.09-2.7-.22-3.95-.37C80.2,56.65,81,56.73,81.79,56.79Zm1.68,12.13.86,0c-1,0-1.6,0-2.1-.08-.71,0-1.22-.08-1.64-.12C81.72,68.85,82.86,68.9,83.47,68.92Zm12.15,0c-.5,0-1.12.06-2.11.08l.86,0c.62,0,1.76-.07,2.88-.17C96.83,68.79,96.33,68.83,95.62,68.87Z"/><path class="cls-6" d="M80.4,75a2.92,2.92,0,0,1-.83-.12,1.78,1.78,0,0,1-1-.55,1.75,1.75,0,0,1-.34-1,8.67,8.67,0,0,1,0-1.35c0-.24,0-.47,0-.62l-.12,0a2.87,2.87,0,0,1-1.31-.74,2.26,2.26,0,0,1-.63-1.38A1.88,1.88,0,0,1,76.5,68a1.18,1.18,0,0,1,.5-.39.55.55,0,0,1-.2-.15.83.83,0,0,1-.18-.59,2.34,2.34,0,0,1,.1-.65q0-.1.06-.24c0-.15,0-.3,0-.45h0a19.23,19.23,0,0,1-.14-2.19,30.87,30.87,0,0,1,.23-3.66h0a1,1,0,0,1-.31-.67c0-.36-.13-1,.3-1.16a.52.52,0,0,1,.3-.05l0-.13-.06-.05a.63.63,0,0,1-.18-.37.31.31,0,0,0,0-.08,1,1,0,0,0-.1-.21.82.82,0,0,0-.17-.22,1.18,1.18,0,0,1-.9.45c-.87,0-1.54-1.08-1.54-2.51s.67-2.52,1.54-2.52,1.55,1.08,1.55,2.52a3.93,3.93,0,0,1-.12,1l.12.12v0a12.43,12.43,0,0,1,.5-2.22q.09-.3.21-.6l.34-1h0A8.79,8.79,0,0,1,79,50.54l0,0a.72.72,0,0,1-.2-.19.71.71,0,0,1,0-.81.64.64,0,0,1,.47-.23l.08,0h0s0,0,0-.08v0a1.58,1.58,0,0,1,.23-.47c.36-.5.91-.69,1.92-.91.69-.14,1.16-.21,1.31-.23h0c1.74-.19,3.21-.26,3.94-.28s1.35,0,2,0h0l0,.39v-.39q1,0,2,0c.72,0,2.19.09,3.93.28,0,0,.44.05,1.31.23s1.56.41,1.92.91a1.58,1.58,0,0,1,.23.47v0c0,.07,0,.08,0,.08l.08,0a.68.68,0,0,1,.48.23.71.71,0,0,1,0,.81.77.77,0,0,1-.18.18l0,0a11,11,0,0,1,.61,1.38c.1.34.23.68.34,1l.21.6a11.76,11.76,0,0,1,.48,2.16l.13-.13a4.24,4.24,0,0,1-.09-.88c0-1.44.66-2.52,1.54-2.52s1.54,1.08,1.54,2.52-.66,2.51-1.54,2.51a1.21,1.21,0,0,1-1-.52,1.47,1.47,0,0,0-.24.29c-.06.13-.09.17-.1.21s0,.06,0,.08a.58.58,0,0,1-.18.36c0,.07,0,.13,0,.19a.47.47,0,0,1,.29.05c.44.2.36.8.31,1.16a1,1,0,0,1-.31.67h0a28.89,28.89,0,0,1,.23,3.66,19.23,19.23,0,0,1-.14,2.19,3.47,3.47,0,0,0,.06.45l.06.24a2.83,2.83,0,0,1,.09.65.79.79,0,0,1-.18.59.53.53,0,0,1-.25.18,1.06,1.06,0,0,1,.54.37,1.87,1.87,0,0,1,.34,1.13,2.17,2.17,0,0,1-.65,1.42,2.82,2.82,0,0,1-1.31.74l-.08,0c0,.16,0,.39,0,.63a12.12,12.12,0,0,1,0,1.35,1.77,1.77,0,0,1-.35,1,1.75,1.75,0,0,1-1,.55,3,3,0,0,1-1.61,0,2.07,2.07,0,0,1-.91-.4,1.45,1.45,0,0,1-.38-.42,2.48,2.48,0,0,1-.26-1.55v-.72l-2,.09-.78,0L89.57,72H88.28l-2.78-.07-.76,0-2-.09v.72a2.48,2.48,0,0,1-.26,1.55,1.61,1.61,0,0,1-.37.42,2.19,2.19,0,0,1-.91.4A3,3,0,0,1,80.4,75Zm15.52-4v1.53c0,.71,0,.92.14,1.13a1.22,1.22,0,0,0,.21.23,1.56,1.56,0,0,0,.59.25,2.33,2.33,0,0,0,1.22,0,1.09,1.09,0,0,0,.6-.3,1,1,0,0,0,.17-.61,8.41,8.41,0,0,0,0-1.23,7.19,7.19,0,0,1,0-.81.83.83,0,0,1,.17-.42l.09-.1.11,0,.24-.07a2.16,2.16,0,0,0,1-.53,1.5,1.5,0,0,0,.44-.93,1.14,1.14,0,0,0-.17-.61.24.24,0,0,0-.27-.09l0,.06-.1.07,0,0a2.85,2.85,0,0,1-1.23.34l-.13-.77a5,5,0,0,0,.75-.19,2.82,2.82,0,0,0,.3-.9l.38.09,0-.11-.37-.08v0a19.23,19.23,0,0,0,.37-3.58,29.68,29.68,0,0,0-.3-4.14l.36-.06,0-.06s0,0,0-.17a2.48,2.48,0,0,0,0-.33h-.06a.84.84,0,0,1-.46-.3l-.06-.08,0-.1c0-.22-.07-.42-.11-.6v0L99.7,57l.33,0v0a.58.58,0,0,1,0-.14h-.47l-3.09.44.28-.11c-.76.08-1.52.14-2.28.19l-.74.05h-.33l-.39,0-.52,0h-.19l-.61,0H88.38c-1.68,0-3.37-.05-5-.16-.78,0-1.57-.12-2.36-.2l.27.11-3-.43h-.06l0,.15h0l-.1.5c0,.19-.07.4-.12.63v.1l-.07.08a.81.81,0,0,1-.46.3h-.06c0,.08,0,.19,0,.33a.71.71,0,0,0,0,.18l0,0,.37.06a29.68,29.68,0,0,0-.3,4.14,19.21,19.21,0,0,0,.37,3.57v0h0l-.38.08,0,.11.38-.09a3.16,3.16,0,0,0,.3.9,5.57,5.57,0,0,0,.76.19l-.13.77a3.33,3.33,0,0,1-1.19-.31l0,0a.93.93,0,0,1-.19-.22s-.14,0-.25.14a1.16,1.16,0,0,0-.15.69,1.6,1.6,0,0,0,.42.87,2.27,2.27,0,0,0,1,.53l.28.08.12,0,.08.1a.71.71,0,0,1,.16.4A7.19,7.19,0,0,1,79,72a10.08,10.08,0,0,0,0,1.23,1.1,1.1,0,0,0,.18.61,1.09,1.09,0,0,0,.59.3,2.33,2.33,0,0,0,1.22,0,1.49,1.49,0,0,0,.59-.25,1.23,1.23,0,0,0,.22-.23c.13-.21.14-.42.13-1.12V71l2.82.12.75,0c1,0,2.11.06,3.18.07h.45c1.07,0,2.14,0,3.18-.07l.76,0ZM77.35,68.3Zm.33-11.47a.58.58,0,0,1,0,.14v0l.38-.05-.34-.12h-.1Zm4.14-.43c2.34.19,4.72.29,7.07.3H89c2.35,0,4.73-.11,7.06-.3.79-.06,1.58-.14,2.41-.23l0,.32L99.71,56l0,0s0,0,0-.15a12.43,12.43,0,0,0-.46-2.06l-.21-.59c-.12-.34-.24-.69-.35-1a8,8,0,0,0-.56-1.26.59.59,0,0,0-.12-.16h0a.71.71,0,0,0-.31-.14s-.42-.06-2.65-.14l0-.78c1.37,0,2.27.06,2.73.1a.94.94,0,0,1-.2-.4.92.92,0,0,0-.13-.24c-.18-.26-.52-.4-1.44-.6s-1.23-.22-1.24-.22c-1.71-.19-3.16-.26-3.87-.28s-1.34,0-2,0h0l0-.39V48c-.67,0-1.35,0-2,0s-2.16.09-3.87.28h0s-.43,0-1.24.22-1.25.34-1.44.6a.9.9,0,0,0-.12.24.85.85,0,0,1-.21.4c.35,0,1.08-.07,2.81-.1l0,.78c-2.28.07-2.65.13-2.7.14a.71.71,0,0,0-.31.14.43.43,0,0,0-.12.16,7.71,7.71,0,0,0-.56,1.26c-.11.35-.24.7-.36,1-.07.19-.14.39-.2.59a10.63,10.63,0,0,0-.46,2.06.57.57,0,0,0,0,.15l0,0,1.26.5,0-.34c.82.09,1.59.16,2.35.22Zm19.68-.67.06.15c.15.33.35.53.53.53s.76-.67.76-1.73S102.4,53,102.09,53s-.76.67-.76,1.73a3.12,3.12,0,0,0,.12.88ZM75.8,53c-.3,0-.75.67-.75,1.73s.45,1.73.75,1.73.35-.18.5-.46l.06-.14.06-.16a3.34,3.34,0,0,0,.14-1C76.56,53.62,76.11,53,75.8,53ZM93.52,69.34l0-.78.86,0h.11c.63,0,1.7-.07,2.75-.17l.07.78c-.46,0-1,.09-1.65.13h0C95.22,69.29,94.59,69.32,93.52,69.34Zm-9.19,0c-1.08,0-1.7,0-2.13-.07-.66,0-1.18-.08-1.65-.13l.08-.78c1.05.1,2.11.14,2.75.17h.11l.85,0Z"/><path class="cls-7" d="M98.68,49.76c-.11-.14-.31,0-.49-.18a.56.56,0,0,1-.18-.31,1.32,1.32,0,0,0-.18-.36c-.26-.38-.69-.54-1.68-.75s-1.27-.23-1.27-.23c-1.95-.22-3.54-.27-3.9-.28-.51,0-1.21,0-2,0h0c-.82,0-1.51,0-2,0s-2,.06-3.9.28c0,0-.42,0-1.28.23s-1.41.37-1.68.75a1.32,1.32,0,0,0-.18.36.56.56,0,0,1-.18.31c-.18.13-.38,0-.49.18a.3.3,0,0,0,0,.34c.13.2.57.12.68.1.62-.1,3.76-.17,9.09-.22s8.46.12,9.08.22c.11,0,.55.1.69-.1A.3.3,0,0,0,98.68,49.76Z"/><path class="cls-6" d="M98.33,50.25l-.3,0h0c-.6-.09-3.57-.16-9.08-.22s-8.49.13-9.08.22h0c-.14,0-.56.09-.69-.12a.33.33,0,0,1,0-.37.37.37,0,0,1,.24-.1.49.49,0,0,0,.25-.08.46.46,0,0,0,.18-.3,1.27,1.27,0,0,1,.18-.37c.29-.4.78-.56,1.7-.76S83,47.9,83,47.9c1.72-.19,3.18-.25,3.9-.27s1.33,0,2,0H89c.67,0,1.34,0,2,0s2.17.08,3.9.28c0,0,.42,0,1.28.22s1.41.36,1.69.76a1.62,1.62,0,0,1,.19.37.42.42,0,0,0,.42.38.35.35,0,0,1,.24.1.33.33,0,0,1,0,.37A.44.44,0,0,1,98.33,50.25ZM88.93,50c5.51,0,8.48.12,9.09.21h0c.13,0,.53.08.65-.09a.29.29,0,0,0,0-.32h0a.28.28,0,0,0-.2-.08.51.51,0,0,1-.28-.09.54.54,0,0,1-.19-.33,1.29,1.29,0,0,0-.18-.35c-.25-.35-.64-.52-1.66-.74C95.3,48,94.88,48,94.88,48c-1.73-.19-3.19-.25-3.9-.27l-2,0h0l-2,0c-.72,0-2.18.08-3.9.27,0,0-.42,0-1.27.23-1,.22-1.42.39-1.67.74a2,2,0,0,0-.18.36.5.5,0,0,1-.19.32.51.51,0,0,1-.27.09.29.29,0,0,0-.21.08.31.31,0,0,0,0,.32c.11.17.51.11.64.09h0C80.44,50.08,83.41,50,88.93,50Z"/><path class="cls-27" d="M100,56.37c-1.68.24-3.51.44-5.45.57s-3.83.17-5.56.16h0c-1.73,0-3.58,0-5.56-.16s-3.76-.33-5.45-.57a33.49,33.49,0,0,0-.81,7c0,1.74.41,4.76.91,5a24.85,24.85,0,0,0,5.48.63c1.1,0,4.73.1,5.45.08s4.36,0,5.45-.08a24.94,24.94,0,0,0,5.49-.63c.5-.19.9-3.21.9-5A33.49,33.49,0,0,0,100,56.37Z"/><path class="cls-6" d="M89.43,69.08h-.51c-.72,0-4.39,0-5.45-.07h-.13A23.41,23.41,0,0,1,78,68.35c-.58-.22-.95-3.41-.95-5a31.43,31.43,0,0,1,.74-6.61c0-.18.06-.31.07-.37v-.08h.07c1.8.26,3.64.46,5.45.58s3.71.17,5.55.15h0c1.84,0,3.71,0,5.55-.15s3.64-.32,5.44-.58H100v.08c0,.06,0,.19.07.37a32.15,32.15,0,0,1,.74,6.61c0,1.6-.37,4.79-1,5A23.28,23.28,0,0,1,94.5,69h-.13C93.48,69,90.69,69.08,89.43,69.08Zm-.51-.15c.73,0,4.39,0,5.45-.08h.13a23.89,23.89,0,0,0,5.33-.62c.42-.16.86-3,.86-4.88a32.08,32.08,0,0,0-.73-6.58c0-.14,0-.24-.07-.31-1.78.25-3.59.44-5.38.56s-3.72.18-5.57.16h0l0-.07v.07c-1.84,0-3.72,0-5.56-.16s-3.61-.31-5.39-.56c0,.07,0,.17-.06.31a32.08,32.08,0,0,0-.73,6.58c0,1.88.44,4.72.86,4.88a23.89,23.89,0,0,0,5.33.62h.13C84.53,68.89,88.2,68.94,88.92,68.93Z"/><path class="cls-26" d="M100,56.37c-1.68.24-3.51.44-5.45.57s-3.8.17-5.52.16H88.9c-1.72,0-3.56,0-5.52-.16s-3.76-.33-5.45-.57c-.06.41-.22.83-.28,1.24a12,12,0,0,1,3.25.44,9.63,9.63,0,0,1,4.23,2.37,9.27,9.27,0,0,1,1.49,1.94,12.21,12.21,0,0,1,1.63,4.89s0,.12,0,.28a1,1,0,0,0,.29.66.6.6,0,0,0,.36.08.58.58,0,0,0,.36-.08,1,1,0,0,0,.3-.66,1.68,1.68,0,0,0,0-.28,12.39,12.39,0,0,1,1.63-4.89,9.4,9.4,0,0,1,1.5-1.94A9.56,9.56,0,0,1,97,58.05a11.77,11.77,0,0,1,3.22-.44C100.14,57.2,100,56.78,100,56.37Z"/><path class="cls-6" d="M89,68.37h0a.75.75,0,0,1-.42-.1,1.08,1.08,0,0,1-.33-.72,3,3,0,0,1,0-.3,12.11,12.11,0,0,0-1.61-4.84,9.82,9.82,0,0,0-1.48-1.92,9.61,9.61,0,0,0-4.19-2.35,11.94,11.94,0,0,0-3.19-.43h-.15l0-.11c0-.22.09-.43.14-.64a4.47,4.47,0,0,0,.14-.61l0-.09h.09c1.8.26,3.63.45,5.45.57S87,57,88.8,57h.26c1.81,0,3.64,0,5.44-.16s3.64-.31,5.44-.57h.1v.09c0,.21.08.42.12.62a6.39,6.39,0,0,1,.13.63v.11h-.11a12.07,12.07,0,0,0-3.19.43,9.66,9.66,0,0,0-4.19,2.35,9.27,9.27,0,0,0-1.47,1.92,12.22,12.22,0,0,0-1.62,4.84,1.38,1.38,0,0,1,0,.3,1,1,0,0,1-.33.72A.66.66,0,0,1,89,68.37Zm0-.2a.55.55,0,0,0,.31-.06c.16-.11.2-.34.25-.6a2.66,2.66,0,0,0,0-.27,12.25,12.25,0,0,1,1.64-4.93,9.35,9.35,0,0,1,1.51-2A9.69,9.69,0,0,1,97,58a11.4,11.4,0,0,1,3.13-.45c0-.17-.07-.33-.11-.5s-.08-.35-.11-.53c-1.77.25-3.57.44-5.36.56s-3.69.17-5.53.15H88.9c-1.84,0-3.7,0-5.53-.15s-3.59-.31-5.36-.56a4.56,4.56,0,0,1-.13.53c0,.17-.09.34-.12.5a11.65,11.65,0,0,1,3.17.45,9.79,9.79,0,0,1,4.27,2.39,10.13,10.13,0,0,1,1.51,2,12.44,12.44,0,0,1,1.64,4.93,1.53,1.53,0,0,0,0,.27.91.91,0,0,0,.26.6A.5.5,0,0,0,88.94,68.17Z"/><path class="cls-28" d="M99.8,59.17c0-.37-1.18-.51-1.68-.4a.76.76,0,0,0-.45.24.41.41,0,0,0-.13.28.46.46,0,0,0,.15.32.93.93,0,0,0,.52.25C98.83,60,99.83,59.52,99.8,59.17Z"/><path class="cls-6" d="M98.4,59.92h-.2a1,1,0,0,1-.54-.26.51.51,0,0,1-.17-.36.5.5,0,0,1,.14-.31.89.89,0,0,1,.47-.26,2.57,2.57,0,0,1,1.61.23.3.3,0,0,1,.14.22.38.38,0,0,1-.14.29A2.19,2.19,0,0,1,98.4,59.92Zm.12-1.14a2.13,2.13,0,0,0-.39,0,.74.74,0,0,0-.42.23.35.35,0,0,0-.12.25.42.42,0,0,0,.14.29.81.81,0,0,0,.48.23,2.08,2.08,0,0,0,1.43-.42c0-.06.12-.14.11-.21h0a.22.22,0,0,0-.1-.15A2.28,2.28,0,0,0,98.52,58.78Z"/><path class="cls-28" d="M78,59.17c0-.37,1.19-.51,1.69-.4a.76.76,0,0,1,.45.24.38.38,0,0,1,0,.6.88.88,0,0,1-.51.25C79,60,78,59.52,78,59.17Z"/><path class="cls-6" d="M79.45,59.92a2.17,2.17,0,0,1-1.31-.46.38.38,0,0,1-.14-.29h0a.28.28,0,0,1,.14-.22,2.53,2.53,0,0,1,1.6-.23.88.88,0,0,1,.48.26.56.56,0,0,1,.14.31.55.55,0,0,1-.17.36,1,1,0,0,1-.54.26Zm-1.36-.74a.35.35,0,0,0,.12.21,2.07,2.07,0,0,0,1.42.42.81.81,0,0,0,.49-.23.46.46,0,0,0,.14-.29.39.39,0,0,0-.12-.25.74.74,0,0,0-.42-.23A2.48,2.48,0,0,0,78.2,59a.24.24,0,0,0-.11.15Z"/><path class="cls-28" d="M100.62,65.56a3.33,3.33,0,0,0,.07.49,3.91,3.91,0,0,1,.14.82c0,.22,0,.29-.08.33a.47.47,0,0,1-.43.09c.06-.25.11-.52.16-.8S100.59,65.86,100.62,65.56Z"/><path class="cls-6" d="M100.46,67.36l-.15,0h0v0c.06-.26.12-.53.17-.8s.1-.62.13-.93h.1a3.93,3.93,0,0,0,.06.48c0,.1,0,.18.06.26a2,2,0,0,1,.09.57c0,.23,0,.31-.09.36A.45.45,0,0,1,100.46,67.36Zm-.08-.11a.4.4,0,0,0,.34-.08s.06-.07.06-.3a2.12,2.12,0,0,0-.08-.54q0-.12-.06-.27s0-.07,0-.1l-.09.54Q100.47,66.88,100.38,67.25Z"/><path class="cls-28" d="M100.27,58a.56.56,0,0,0,.26.17c.12,0,.17,0,.24,0s.11.53.08.76a.64.64,0,0,1-.17.42.42.42,0,0,1-.17.08l-.12-.73Z"/><path class="cls-6" d="M100.47,59.52v-.05l-.12-.73c0-.24-.07-.48-.12-.71l0-.19.12.15a.46.46,0,0,0,.23.15.26.26,0,0,0,.12,0,.15.15,0,0,1,.13,0c.19.09.15.46.11.81a.67.67,0,0,1-.19.44.44.44,0,0,1-.19.1Zm-.12-1.36.09.56c0,.23.07.46.11.68l.1-.06c.07-.06.12-.14.15-.39s.09-.64-.06-.71h-.06a.28.28,0,0,1-.16,0A.53.53,0,0,1,100.35,58.16Z"/><path class="cls-28" d="M77.22,65.56a3.6,3.6,0,0,1-.06.49,3.91,3.91,0,0,0-.14.82c0,.22,0,.29.07.33a.49.49,0,0,0,.44.09c-.06-.25-.12-.52-.17-.8S77.26,65.86,77.22,65.56Z"/><path class="cls-6" d="M77.39,67.36a.44.44,0,0,1-.33-.13S77,67.1,77,66.87a2.45,2.45,0,0,1,.08-.57c0-.08,0-.16.06-.26a4,4,0,0,0,.07-.48h.09c0,.31.09.63.14.93s.1.54.17.8v0h0ZM77.23,66s0,.07,0,.1,0,.19-.06.27a1.8,1.8,0,0,0-.08.54c0,.23,0,.27.06.3a.4.4,0,0,0,.34.08c-.06-.25-.11-.5-.16-.75S77.25,66.14,77.23,66Z"/><path class="cls-28" d="M77.57,58a.48.48,0,0,1-.25.17c-.12,0-.17,0-.24,0S77,58.73,77,59a.59.59,0,0,0,.17.42.37.37,0,0,0,.17.08c0-.24.07-.48.11-.73Z"/><path class="cls-6" d="M77.38,59.52h0a.44.44,0,0,1-.19-.1A.59.59,0,0,1,77,59c0-.35-.08-.72.11-.81a.13.13,0,0,1,.12,0,.31.31,0,0,0,.13,0,.46.46,0,0,0,.23-.15l.11-.15,0,.19-.12.71c0,.24-.07.49-.11.73Zm-.25-1.28h0c-.14.07-.08.52,0,.71s.08.33.15.39l.1.06c0-.22.07-.45.11-.68l.09-.56a.53.53,0,0,1-.17.08.28.28,0,0,1-.16,0Z"/><path class="cls-7" d="M100.13,55.8a12.53,12.53,0,0,0-.47-2.14c-.18-.54-.39-1.07-.55-1.62a9.6,9.6,0,0,0-.59-1.32,1.09,1.09,0,0,0-.21-.28,1.21,1.21,0,0,0-.49-.23c-.37-.07-3-.17-6.52-.24H86.57c-3.55.07-6.15.17-6.51.24a1.13,1.13,0,0,0-.49.23,1.09,1.09,0,0,0-.21.28A9.6,9.6,0,0,0,78.77,52c-.17.55-.37,1.08-.55,1.62a12,12,0,0,0-.48,2.14.63.63,0,0,0,.08.44.61.61,0,0,0,.33.18c1.18.14,2.39.27,3.64.37,2.49.21,4.86.3,7.1.3H89c2.23,0,4.6-.09,7.1-.3,1.25-.1,2.46-.23,3.64-.37a.55.55,0,0,0,.32-.18A.54.54,0,0,0,100.13,55.8Z"/><path class="cls-6" d="M89,57.19h-.2c-2.33,0-4.69-.1-7-.29-1.21-.1-2.43-.22-3.64-.37a.65.65,0,0,1-.39-.22.62.62,0,0,1-.1-.51,13.42,13.42,0,0,1,.47-2.16l.21-.6c.12-.33.24-.67.35-1h0a8.38,8.38,0,0,1,.59-1.34,1.11,1.11,0,0,1,.24-.31,1.14,1.14,0,0,1,.53-.25c.39-.08,3.14-.18,6.53-.25H91.3c3.4.07,6.15.17,6.54.25a1.14,1.14,0,0,1,.53.25,1.11,1.11,0,0,1,.24.31A9.9,9.9,0,0,1,99.2,52c.1.35.23.69.35,1s.14.4.2.6a11.71,11.71,0,0,1,.48,2.16h0a.71.71,0,0,1-.1.51.62.62,0,0,1-.39.21c-1.21.16-2.43.28-3.65.38-2.31.19-4.67.29-7,.29H89Zm-2.42-7.12c-3.83.07-6.17.18-6.49.24a1,1,0,0,0-.44.21.72.72,0,0,0-.19.25,8,8,0,0,0-.58,1.3c-.11.35-.23.69-.35,1l-.21.59a13.21,13.21,0,0,0-.47,2.12.53.53,0,0,0,.06.37.42.42,0,0,0,.27.14c1.2.15,2.42.28,3.63.38,2.34.19,4.73.29,7.09.29H89c2.36,0,4.74-.1,7.09-.29,1.21-.1,2.43-.23,3.63-.38a.44.44,0,0,0,.27-.14.53.53,0,0,0,.06-.37,13.21,13.21,0,0,0-.47-2.12l-.21-.59c-.12-.34-.24-.68-.35-1h0a7.85,7.85,0,0,0-.58-1.3.76.76,0,0,0-.19-.25,1,1,0,0,0-.44-.21c-.33-.06-2.66-.17-6.5-.24Z"/><path class="cls-29" d="M89.6,50.92a.73.73,0,0,1,.43-.2,26.79,26.79,0,0,1,3.38-.08c1.52,0,2.08.09,3.2.16a1.13,1.13,0,0,1,.62.2c.35.25.34.62.55,1.65,0,0,.17.81.4,2.15a1.07,1.07,0,0,1-.12.87.74.74,0,0,1-.46.21c-.56.08-3.32.26-7.08.47a1,1,0,0,1-.7-.14,1,1,0,0,1-.39-.54V51.36A.67.67,0,0,1,89.6,50.92Z"/><path class="cls-6" d="M90.36,56.42a1.1,1.1,0,0,1-.57-.17,1,1,0,0,1-.41-.57h0V51.36a.75.75,0,0,1,.19-.48h0a.75.75,0,0,1,.45-.21,26.89,26.89,0,0,1,3.39-.08c1.52,0,2.08.09,3.2.16a1.23,1.23,0,0,1,.65.21c.29.21.35.5.46,1.12l.11.56c0,.14.18.89.39,2.15a1.11,1.11,0,0,1-.12.91.83.83,0,0,1-.49.23c-.59.08-3.43.27-7.09.47Zm-.89-.76a1,1,0,0,0,.37.51.93.93,0,0,0,.67.13c3.66-.2,6.5-.39,7.09-.47a.63.63,0,0,0,.42-.2c.21-.22.14-.6.11-.82-.21-1.26-.37-2-.39-2.15s-.08-.4-.11-.56c-.12-.62-.17-.87-.43-1.06a1.16,1.16,0,0,0-.59-.19c-1.12-.07-1.68-.11-3.2-.16a26.54,26.54,0,0,0-3.37.08.68.68,0,0,0-.4.18h0a.67.67,0,0,0-.17.41Z"/><path class="cls-29" d="M98,51c-.06,0,.09.47.19.89.22.87.6,3.09.65,3.43a.21.21,0,0,0,.08.17s.09,0,.2,0l.21-.06a.25.25,0,0,0,.1-.08.3.3,0,0,0,0-.22c-.17-.88-.68-2.52-.68-2.52a5.92,5.92,0,0,0-.56-1.31C98,51,98,51,98,51Z"/><path class="cls-6" d="M98.93,55.52l-.07,0a.23.23,0,0,1-.11-.2c0-.32-.43-2.54-.65-3.43L98,51.52c-.11-.43-.14-.56-.07-.59h0c.06,0,.11,0,.28.3a5.92,5.92,0,0,1,.56,1.31h0c0,.07.51,1.67.67,2.53a.29.29,0,0,1,0,.26.23.23,0,0,1-.11.09.72.72,0,0,1-.22.07ZM98,51.07c0,.1.07.27.11.42l.09.35c.22.9.6,3.12.65,3.44a.18.18,0,0,0,.06.14.37.37,0,0,0,.16,0,.47.47,0,0,0,.19-.06.2.2,0,0,0,.09-.06.3.3,0,0,0,0-.18c-.16-.86-.65-2.45-.67-2.52v0a6.22,6.22,0,0,0-.55-1.28Z"/><path class="cls-29" d="M88.27,50.92a.69.69,0,0,0-.42-.2,26.79,26.79,0,0,0-3.38-.08c-1.52,0-2.08.09-3.2.16a1.13,1.13,0,0,0-.62.2c-.35.25-.34.62-.56,1.65,0,0-.17.81-.39,2.15a1,1,0,0,0,.12.87.72.72,0,0,0,.45.21c.57.08,3.33.26,7.09.47a1,1,0,0,0,.7-.14,1,1,0,0,0,.39-.54V51.36A.68.68,0,0,0,88.27,50.92Z"/><path class="cls-6" d="M87.52,56.42l-.17,0c-3.65-.2-6.5-.39-7.08-.47a.81.81,0,0,1-.49-.23,1.11,1.11,0,0,1-.13-.91c.23-1.35.39-2.12.4-2.15,0-.21.07-.4.1-.56.12-.62.17-.91.47-1.12a1.23,1.23,0,0,1,.65-.21c1.11-.07,1.67-.11,3.2-.16a26.89,26.89,0,0,1,3.39.08.75.75,0,0,1,.45.21h0a.74.74,0,0,1,.19.47v4.32h0a1,1,0,0,1-.41.57A1.1,1.1,0,0,1,87.52,56.42Zm-1.8-5.75c-.69,0-1.24,0-1.25,0-1.52.05-2.08.09-3.2.16a1.13,1.13,0,0,0-.59.19c-.27.19-.31.44-.43,1.06,0,.16-.06.34-.11.56,0,0-.16.8-.39,2.15a1,1,0,0,0,.1.82.67.67,0,0,0,.43.2c.58.08,3.43.27,7.08.47a.92.92,0,0,0,.67-.13,1,1,0,0,0,.37-.51v-4.3a.66.66,0,0,0-.16-.41h0a.71.71,0,0,0-.4-.18A17.13,17.13,0,0,0,85.72,50.67Z"/><path class="cls-29" d="M79.91,51c.06,0-.08.47-.18.89-.22.87-.6,3.09-.65,3.43a.22.22,0,0,1-.09.17s-.08,0-.19,0a1,1,0,0,1-.21-.06.25.25,0,0,1-.1-.08.3.3,0,0,1,0-.22c.16-.88.67-2.52.67-2.52a6.12,6.12,0,0,1,.57-1.31C79.86,51,79.9,51,79.91,51Z"/><path class="cls-6" d="M79,55.52l-.16,0a.61.61,0,0,1-.22-.07.26.26,0,0,1-.12-.09.32.32,0,0,1,0-.26c.16-.86.66-2.46.68-2.53h0a6.12,6.12,0,0,1,.57-1.31c.16-.28.22-.32.27-.3h0c.08,0,0,.16-.06.59,0,.11-.07.23-.1.35-.22.89-.6,3.11-.64,3.43,0,0,0,.16-.11.2Zm.23-2.94h0c0,.07-.51,1.66-.67,2.52a.18.18,0,0,0,.1.24.6.6,0,0,0,.2.06.36.36,0,0,0,.16,0,.18.18,0,0,0,.06-.14c0-.32.43-2.54.65-3.44l.09-.35a3.5,3.5,0,0,0,.1-.42s-.07.1-.13.21a6.22,6.22,0,0,0-.55,1.28Z"/><path class="cls-6" d="M88.94,59a1.62,1.62,0,1,0,1.56,1.62A1.59,1.59,0,0,0,88.94,59Zm1.26,1.62a1.31,1.31,0,0,1-.28.82l-.83-.84V59.29A1.28,1.28,0,0,1,90.2,60.59Zm-1.41,1.3a1.28,1.28,0,0,1-.62-.27l.62-.62Zm.3-.89.62.62a1.24,1.24,0,0,1-.62.27Zm-.3-1.71v1.28l-.83.84a1.37,1.37,0,0,1-.28-.82A1.29,1.29,0,0,1,88.79,59.29Z"/><path class="cls-30" d="M96.7,64.77a1.75,1.75,0,1,1,1.77-1.72A1.73,1.73,0,0,1,96.7,64.77Z"/><path class="cls-31" d="M94.15,63a2.57,2.57,0,1,1,2.54,2.58A2.58,2.58,0,0,1,94.15,63Zm4.9.08a2.32,2.32,0,0,0-2.27-2.39A2.37,2.37,0,0,0,94.36,63a2.4,2.4,0,0,0,2.36,2.38A2.34,2.34,0,0,0,99.05,63.08Z"/><path class="cls-32" d="M99.05,63.08a2.34,2.34,0,0,1-2.33,2.29A2.4,2.4,0,0,1,94.36,63a2.37,2.37,0,0,1,2.42-2.3A2.32,2.32,0,0,1,99.05,63.08Zm-2.31-2a1.93,1.93,0,0,0-2,2,2,2,0,1,0,2-2Z"/><path class="cls-31" d="M96.74,61.07a1.94,1.94,0,0,1,1.94,2,2,2,0,1,1-3.92,0A1.93,1.93,0,0,1,96.74,61.07Zm0,3.7A1.75,1.75,0,1,0,95,63,1.74,1.74,0,0,0,96.7,64.77Z"/><path class="cls-33" d="M96.13,64.09A.1.1,0,0,1,96,64V62.16a.09.09,0,0,1,.09-.09.09.09,0,0,1,.1.09V64A.1.1,0,0,1,96.13,64.09Z"/><path class="cls-33" d="M96.79,64.09a.11.11,0,0,1-.1-.1V62.16a.1.1,0,0,1,.1-.09.09.09,0,0,1,.1.09V64A.1.1,0,0,1,96.79,64.09Z"/><path class="cls-33" d="M97.45,64.09a.1.1,0,0,1-.1-.1V62.16a.09.09,0,0,1,.1-.09.1.1,0,0,1,.1.09V64A.11.11,0,0,1,97.45,64.09Z"/><path class="cls-34" d="M81.12,61.28A1.76,1.76,0,0,1,82.9,63a1.83,1.83,0,0,1-1.71,1.73A1.78,1.78,0,0,1,79.38,63,1.75,1.75,0,0,1,81.12,61.28Z"/><path class="cls-31" d="M83.69,63a2.57,2.57,0,1,0-2.54,2.58A2.57,2.57,0,0,0,83.69,63Zm-4.9.08a2.33,2.33,0,0,1,2.27-2.39A2.37,2.37,0,0,1,83.49,63a2.4,2.4,0,0,1-2.36,2.38A2.36,2.36,0,0,1,78.79,63.08Z"/><path class="cls-32" d="M78.79,63.08a2.36,2.36,0,0,0,2.34,2.29A2.4,2.4,0,0,0,83.49,63a2.37,2.37,0,0,0-2.43-2.3A2.33,2.33,0,0,0,78.79,63.08Zm2.31-2a1.94,1.94,0,0,1,2,2,2,2,0,1,1-3.92,0A1.94,1.94,0,0,1,81.1,61.07Z"/><path class="cls-31" d="M81.1,61.07A2,2,0,0,0,81.16,65a2,2,0,0,0,1.93-2A1.94,1.94,0,0,0,81.1,61.07Zm.05,3.7A1.75,1.75,0,1,1,82.88,63,1.73,1.73,0,0,1,81.15,64.77Z"/><path class="cls-33" d="M81.71,64.09a.1.1,0,0,0,.1-.1V62.16a.09.09,0,0,0-.1-.09.1.1,0,0,0-.1.09V64A.11.11,0,0,0,81.71,64.09Z"/><path class="cls-33" d="M81.05,64.09a.1.1,0,0,0,.1-.1V62.16a.09.09,0,0,0-.1-.09.09.09,0,0,0-.09.09V64A.1.1,0,0,0,81.05,64.09Z"/><path class="cls-33" d="M80.4,64.09a.11.11,0,0,0,.1-.1V62.16a.1.1,0,0,0-.1-.09.09.09,0,0,0-.1.09V64A.1.1,0,0,0,80.4,64.09Z"/><path class="cls-31" d="M78.29,70.88a.47.47,0,0,1,.26.13.33.33,0,0,1,.08.21c0,.39-.07,1.37,0,2a1.43,1.43,0,0,0,.27.81,1.45,1.45,0,0,0,.78.43,2.76,2.76,0,0,0,1.42,0,1.7,1.7,0,0,0,.75-.32,1.45,1.45,0,0,0,.29-.33c.22-.34.21-.66.2-1.47v-1Z"/><path class="cls-1" d="M80.54,74.1a.1.1,0,0,1-.09-.1V71.75a.09.09,0,0,1,.09-.1.09.09,0,0,1,.1.1V74A.1.1,0,0,1,80.54,74.1Z"/><path class="cls-1" d="M79.66,73.4a.1.1,0,0,1-.09-.1V71.73a.1.1,0,0,1,.09-.1.1.1,0,0,1,.1.1V73.3A.1.1,0,0,1,79.66,73.4Z"/><path class="cls-1" d="M81.33,73.59a.09.09,0,0,1-.1-.1V71.93a.09.09,0,0,1,.1-.1.1.1,0,0,1,.1.1v1.56A.1.1,0,0,1,81.33,73.59Z"/><path class="cls-31" d="M99.58,70.88a.47.47,0,0,0-.26.13.4.4,0,0,0-.08.21c0,.39.07,1.37,0,2a1.42,1.42,0,0,1-.26.81,1.44,1.44,0,0,1-.79.43,2.77,2.77,0,0,1-1.42,0A1.7,1.7,0,0,1,96,74.2a1.45,1.45,0,0,1-.29-.33c-.22-.34-.2-.66-.2-1.47,0-.21,0-.57,0-1Z"/><path class="cls-1" d="M97.33,74.1a.11.11,0,0,0,.1-.1V71.75a.1.1,0,0,0-.2,0V74A.11.11,0,0,0,97.33,74.1Z"/><path class="cls-1" d="M98.21,73.4a.11.11,0,0,0,.1-.1V71.73a.1.1,0,0,0-.2,0V73.3A.11.11,0,0,0,98.21,73.4Z"/><path class="cls-1" d="M96.55,73.59a.09.09,0,0,0,.09-.1V71.93a.09.09,0,0,0-.09-.1.09.09,0,0,0-.1.1v1.56A.09.09,0,0,0,96.55,73.59Z"/><path class="cls-28" d="M101,68.25a.62.62,0,0,0-.85-.14c-.14.11-.19.68-.94.81-2.28.41-9.54.46-10.21.48s-7.4-.43-8.6-.44c-1.7,0-2.61-.61-2.73-.84s-.58-.3-.89.11a1.61,1.61,0,0,0-.23.94,1.91,1.91,0,0,0,.53,1.12,2.44,2.44,0,0,0,1.15.64,5.7,5.7,0,0,0,1.47.27,19.32,19.32,0,0,1,2.4.2l3.38.14c.84,0,1.91.06,3.18.07h.47c1.26,0,2.34,0,3.18-.07l3.38-.14a18.39,18.39,0,0,1,2.4-.2,5.7,5.7,0,0,0,1.47-.27,2.49,2.49,0,0,0,1.15-.64,1.78,1.78,0,0,0,.54-1.17A1.5,1.5,0,0,0,101,68.25Z"/><path class="cls-6" d="M88.59,71.72h0l-3.09-.07-.78,0-2.59-.12h0l-2.4-.19A5.5,5.5,0,0,1,78.23,71,2.58,2.58,0,0,1,77,70.36a2,2,0,0,1-.56-1.19,1.74,1.74,0,0,1,.25-1,.77.77,0,0,1,.67-.33.45.45,0,0,1,.38.23,3.68,3.68,0,0,0,2.65.79c.71,0,3.38.16,5.53.28L89,69.3h.39a82.26,82.26,0,0,0,9.79-.46,1,1,0,0,0,.77-.6.53.53,0,0,1,.13-.2.7.7,0,0,1,.48-.13.78.78,0,0,1,.5.29,1.47,1.47,0,0,1,.27.93,1.89,1.89,0,0,1-.56,1.24,2.58,2.58,0,0,1-1.19.66,5.56,5.56,0,0,1-1.49.28l-2.41.19h0l-2.6.12-.78,0-3.08.07h-.67Zm.33-.2h.23c1.07,0,2.14,0,3.19-.06l.78,0,2.54-.11h0l.42,0,2-.16a5.43,5.43,0,0,0,1.45-.26,2.6,2.6,0,0,0,1.11-.61,1.73,1.73,0,0,0,.51-1.12,1.38,1.38,0,0,0-.23-.8h0a.55.55,0,0,0-.37-.21.54.54,0,0,0-.34.08.45.45,0,0,0-.07.14,1.19,1.19,0,0,1-.92.7,81.92,81.92,0,0,1-9.82.47H89c-.28,0-1.58-.07-3.09-.16-2.14-.12-4.82-.27-5.52-.28-1.68,0-2.67-.59-2.82-.89a.28.28,0,0,0-.22-.12.55.55,0,0,0-.5.25,1.43,1.43,0,0,0-.21.88,1.88,1.88,0,0,0,.5,1.06,2.54,2.54,0,0,0,1.11.61,5.44,5.44,0,0,0,1.44.26l2,.16.41,0h0l2.55.11.78,0c1,0,2.11,0,3.18.06h.23Z"/><path class="cls-28" d="M100.71,68.34a.31.31,0,0,0-.24-.22.52.52,0,0,0-.42.12,7.58,7.58,0,0,1-2.2.44c-.55.07-1.16.13-2.23.19-.73,0-1.7.08-3.72.1-1.12,0-2.08,0-2.82,0h-.32C88,69,87.07,69,86,69c-2,0-3-.06-3.72-.1-1.08-.06-1.69-.12-2.23-.19a7.69,7.69,0,0,1-2.21-.44.49.49,0,0,0-.41-.12.34.34,0,0,0-.25.22.32.32,0,0,0,0,.21c.13.34,1.08.51,1.32.55.43.08,1,.17,1.63.24s1.4.16,2.44.22,1.86,0,3.33,0c.7,0,1.67,0,2.85,0h.41c1.18,0,2.15,0,2.84,0,1.48,0,2.19,0,3.33,0s1.89-.15,2.45-.22,1.19-.16,1.63-.24c.23,0,1.18-.21,1.32-.55A.36.36,0,0,0,100.71,68.34Z"/><path class="cls-6" d="M88.66,69.71h0c-.94,0-1.87,0-2.79,0h-.93c-.89,0-1.53,0-2.4,0s-1.65-.12-2.45-.22c-.54-.06-1.09-.14-1.63-.24s-1.24-.28-1.36-.58a.34.34,0,0,1,0-.25.39.39,0,0,1,.28-.25.55.55,0,0,1,.45.12,6.72,6.72,0,0,0,2.18.44c.47.06,1.07.13,2.23.2.7,0,1.64.07,3.72.09h6c2.08,0,3-.06,3.72-.09,1.16-.07,1.75-.14,2.22-.2A7.17,7.17,0,0,0,100,68.2a.55.55,0,0,1,.46-.13.39.39,0,0,1,.28.25h0a.46.46,0,0,1,0,.25c-.12.3-.8.48-1.36.58s-1.08.18-1.62.24c-.81.1-1.63.17-2.46.22s-1.51,0-2.39,0H92c-.91,0-1.85,0-2.79,0h-.52Zm.26-.11h.21c1,0,1.91,0,2.84,0h.94c.91,0,1.52,0,2.39,0s1.64-.12,2.44-.22c.55-.06,1.09-.14,1.63-.24.73-.13,1.2-.32,1.28-.52a.32.32,0,0,0,0-.18.3.3,0,0,0-.21-.19.48.48,0,0,0-.37.11,7.11,7.11,0,0,1-2.23.46c-.48.06-1.07.13-2.24.19-.7,0-1.64.08-3.72.1C91,69,90,69,89.08,69h-.32c-.93,0-1.87,0-2.81,0-2.09,0-3-.06-3.73-.1-1.16-.06-1.76-.13-2.23-.19a7.3,7.3,0,0,1-2.22-.45.48.48,0,0,0-.38-.12.3.3,0,0,0-.21.19.37.37,0,0,0,0,.18c.08.2.55.39,1.29.52.53.1,1.08.18,1.62.24.8.1,1.63.18,2.45.22s1.47,0,2.39,0h.93c.93,0,1.89,0,2.85,0h.2Z"/><ellipse class="cls-26" cx="75.8" cy="54.68" rx="1.15" ry="2.12"/><path class="cls-6" d="M75.8,56.85c-.66,0-1.19-1-1.19-2.17s.53-2.17,1.19-2.17,1.2,1,1.2,2.17S76.47,56.85,75.8,56.85Zm0-4.25c-.6,0-1.1.93-1.1,2.08s.5,2.07,1.1,2.07,1.11-.93,1.11-2.07S76.41,52.6,75.8,52.6Z"/><path class="cls-26" d="M76.18,55a.63.63,0,0,0,.16.25c.32.32.16.23.9,1a.69.69,0,0,0,.32.2c.14,0,.21,0,.33,0a.45.45,0,0,1,.22.25.6.6,0,0,1-.17.58.52.52,0,0,1-.29.13.29.29,0,0,1-.21-.07c-.06-.06,0-.13-.09-.26a1.31,1.31,0,0,0-.13-.29,2.39,2.39,0,0,0-.45-.54c-.47-.48-.71-.72-.83-.86a.49.49,0,0,0-.23-.17c-.12,0-.16,0-.25,0a.43.43,0,0,1-.21-.35.5.5,0,0,1,.16-.39.48.48,0,0,1,.52-.05.55.55,0,0,1,.22.25C76.2,54.8,76.13,54.87,76.18,55Z"/><path class="cls-6" d="M77.62,57.45a.29.29,0,0,1-.21-.08.25.25,0,0,1-.08-.18s0-.07,0-.11a2,2,0,0,0-.13-.28,1.9,1.9,0,0,0-.35-.42l-.1-.1c-.47-.48-.71-.72-.83-.87a.44.44,0,0,0-.21-.15.15.15,0,0,0-.11,0,.36.36,0,0,1-.14,0,.45.45,0,0,1-.24-.39.54.54,0,0,1,.18-.43.52.52,0,0,1,.57,0,.49.49,0,0,1,.24.28.36.36,0,0,1,0,.2.51.51,0,0,0,0,.17h0a.47.47,0,0,0,.15.21,3.37,3.37,0,0,1,.24.27,8.1,8.1,0,0,0,.67.7.54.54,0,0,0,.28.19h.15a.29.29,0,0,1,.2,0,.44.44,0,0,1,.24.28.59.59,0,0,1-.18.62.45.45,0,0,1-.31.14Zm-2-2.3h.1a.47.47,0,0,1,.25.19l.83.86.1.1a1.83,1.83,0,0,1,.36.44,1.25,1.25,0,0,1,.14.31.52.52,0,0,1,0,.11c0,.07,0,.1,0,.13a.29.29,0,0,0,.18.05.41.41,0,0,0,.25-.12.49.49,0,0,0,.16-.52.35.35,0,0,0-.19-.22.17.17,0,0,0-.14,0,1.07,1.07,0,0,1-.18,0,.65.65,0,0,1-.34-.22,7,7,0,0,1-.68-.71l-.22-.25a.61.61,0,0,1-.18-.27h0a.46.46,0,0,1,0-.2.47.47,0,0,0,0-.16.39.39,0,0,0-.2-.22.41.41,0,0,0-.46,0,.44.44,0,0,0-.14.34.35.35,0,0,0,.17.31h.15Z"/><ellipse class="cls-26" cx="102.09" cy="54.68" rx="1.15" ry="2.12"/><path class="cls-6" d="M102.09,56.85c-.66,0-1.2-1-1.2-2.17s.54-2.17,1.2-2.17,1.2,1,1.2,2.17S102.75,56.85,102.09,56.85Zm0-4.25c-.61,0-1.1.93-1.1,2.08s.49,2.07,1.1,2.07,1.1-.93,1.1-2.07S102.69,52.6,102.09,52.6Z"/><path class="cls-26" d="M101.59,55a.65.65,0,0,1-.17.25,12.57,12.57,0,0,1-.9,1,.62.62,0,0,1-.31.2c-.14,0-.21,0-.33,0a.45.45,0,0,0-.22.25.58.58,0,0,0,.17.58.52.52,0,0,0,.28.13.31.31,0,0,0,.22-.07c.06-.06,0-.13.08-.26a1.45,1.45,0,0,1,.14-.29,2.39,2.39,0,0,1,.45-.54c.47-.48.71-.72.83-.86a.49.49,0,0,1,.23-.17c.12,0,.16,0,.25,0a.43.43,0,0,0,.21-.35.46.46,0,0,0-.68-.44.5.5,0,0,0-.22.25C101.57,54.8,101.64,54.87,101.59,55Z"/><path class="cls-6" d="M100.14,57.45h0a.45.45,0,0,1-.31-.14.61.61,0,0,1-.19-.62.5.5,0,0,1,.25-.28.26.26,0,0,1,.19,0h.15a.61.61,0,0,0,.29-.19,8.1,8.1,0,0,0,.67-.7,3.31,3.31,0,0,1,.23-.26.57.57,0,0,0,.15-.22h0a.34.34,0,0,0,0-.17.75.75,0,0,1,0-.2.53.53,0,0,1,.25-.28.52.52,0,0,1,.57,0,.58.58,0,0,1,.18.43.45.45,0,0,1-.24.39.39.39,0,0,1-.14,0,.17.17,0,0,0-.12,0,.41.41,0,0,0-.2.15c-.13.15-.36.39-.83.86l-.1.11a1.9,1.9,0,0,0-.35.42,1.28,1.28,0,0,0-.13.28.52.52,0,0,0,0,.11.25.25,0,0,1-.08.18A.3.3,0,0,1,100.14,57.45Zm-.17-1a.13.13,0,0,0-.08,0,.36.36,0,0,0-.18.22.49.49,0,0,0,.16.52.41.41,0,0,0,.25.12.25.25,0,0,0,.17-.05.2.2,0,0,0,0-.13l0-.11a1.25,1.25,0,0,1,.14-.31,1.83,1.83,0,0,1,.36-.44l.1-.1c.47-.48.7-.72.82-.86a.55.55,0,0,1,.26-.19.4.4,0,0,1,.15,0h.09a.36.36,0,0,0,.18-.31.4.4,0,0,0-.15-.34.41.41,0,0,0-.46,0,.42.42,0,0,0-.19.22.31.31,0,0,0,0,.16.46.46,0,0,1,0,.2.59.59,0,0,1-.17.26,1.91,1.91,0,0,0-.23.26,8.59,8.59,0,0,1-.68.71.65.65,0,0,1-.34.22,1.07,1.07,0,0,1-.18,0Z"/></g></g></svg>