<svg xmlns="http://www.w3.org/2000/svg" viewBox="0 0 22 22"><defs><style>.cls-1{fill:#867bb9;}</style></defs><g id="Layer_2" data-name="Layer 2"><g id="Camada_1" data-name="Camada 1"><path class="cls-1" d="M11,0A11,11,0,1,0,22,11,11,11,0,0,0,11,0ZM8.67,1.45a9.94,9.94,0,0,0-2.07,4A5.94,5.94,0,0,1,4.39,3.84,9.86,9.86,0,0,1,8.67,1.45Zm-5,3.12A7,7,0,0,0,6.35,6.45a20.89,20.89,0,0,0-.48,4H1.33A9.77,9.77,0,0,1,3.69,4.57ZM1,14.79l.18.48Zm2.68,2.6a9.84,9.84,0,0,1-2.35-5.91H5.87a20.63,20.63,0,0,0,.46,4A7.11,7.11,0,0,0,3.68,17.39Zm.7.73a5.94,5.94,0,0,1,2.2-1.64,10,10,0,0,0,2.05,4A9.83,9.83,0,0,1,4.38,18.12Zm6.28,2.56a4.5,4.5,0,0,1-2.43-2.63,14.07,14.07,0,0,1-.7-1.93,11.66,11.66,0,0,1,3.13-.49Zm0-6a12.33,12.33,0,0,0-3.37.52,20.2,20.2,0,0,1-.41-3.67h3.78Zm0-4.15H6.88A20.28,20.28,0,0,1,7.31,6.8a12.51,12.51,0,0,0,3.35.51Zm0-4.18a11.14,11.14,0,0,1-3.11-.48A13.21,13.21,0,0,1,8.23,4a4.5,4.5,0,0,1,2.43-2.63ZM21,10.48H16.46A21.55,21.55,0,0,0,16,6.28,7.51,7.51,0,0,0,18.5,4.41,9.82,9.82,0,0,1,21,10.48ZM18.1,3.84a5.94,5.94,0,0,1-2.21,1.62,9.94,9.94,0,0,0-2.07-4A9.86,9.86,0,0,1,18.1,3.84ZM11.67,1.32A4.5,4.5,0,0,1,14.1,4a12.76,12.76,0,0,1,.65,1.75,11.15,11.15,0,0,1-3.08.59Zm0,6A11.72,11.72,0,0,0,15,6.66a20.07,20.07,0,0,1,.46,3.82H11.67Zm0,4.18h3.78a19.79,19.79,0,0,1-.44,3.8,11.93,11.93,0,0,0-3.34-.64Zm0,9.2v-5a11.08,11.08,0,0,1,3.09.6,12.68,12.68,0,0,1-.66,1.8A4.5,4.5,0,0,1,11.67,20.68Zm2-.18a9.8,9.8,0,0,0,2-3.86,6.13,6.13,0,0,1,2.1,1.62A9.8,9.8,0,0,1,13.7,20.5Zm4.81-3A7.56,7.56,0,0,0,16,15.66a20.63,20.63,0,0,0,.5-4.18H21A9.84,9.84,0,0,1,18.51,17.54Z"/></g></g></svg>