<svg xmlns="http://www.w3.org/2000/svg" viewBox="0 0 20 20"><defs><style>.cls-1{fill:#867bb9;fill-rule:evenodd;}</style></defs><g id="Layer_2" data-name="Layer 2"><g id="Camada_1" data-name="Camada 1"><path class="cls-1" d="M20,9.49A9.82,9.82,0,0,0,.37,9.32c0,.14,0,.28,0,.42a9.66,9.66,0,0,0,1.41,5L0,20l5.44-1.73A9.82,9.82,0,0,0,20,9.74,2.18,2.18,0,0,0,20,9.49Zm-9.81,8.44a8.19,8.19,0,0,1-4.54-1.35l-3.17,1,1-3.05a8.09,8.09,0,0,1-1.57-4.8A7,7,0,0,1,2,9a8.26,8.26,0,0,1,16.44.15c0,.22,0,.43,0,.64A8.23,8.23,0,0,1,10.18,17.93Z"/><path class="cls-1" d="M14.68,11.71c-.25-.12-1.43-.7-1.65-.78s-.38-.12-.54.12-.62.78-.76.94-.28.17-.53,0a6.29,6.29,0,0,1-1.93-1.18A7.28,7.28,0,0,1,7.93,9.21c-.14-.24,0-.37.11-.49s.24-.28.36-.42l.09-.11.15-.29a.42.42,0,0,0,0-.41c-.06-.12-.54-1.3-.74-1.78s-.4-.39-.55-.39-.29,0-.45,0a.89.89,0,0,0-.65.3,2.69,2.69,0,0,0-.84,2,3.17,3.17,0,0,0,.12.81,5.7,5.7,0,0,0,.86,1.66,10,10,0,0,0,4.11,3.6c2.45.95,2.45.64,2.89.6A2.44,2.44,0,0,0,15,13.12,2,2,0,0,0,15.14,12C15.08,11.89,14.92,11.83,14.68,11.71Z"/></g></g></svg>